
<svg class="graph-grid" viewBox="0 0 1592.57 497.673">
<g xmlns="http://www.w3.org/2000/svg" xmlns:xlink="http://www.w3.org/1999/xlink">
  <g>
    <defs>
      <rect id="7_th_2_SVGID_1_" width="1592.57" height="497.673"></rect>
    </defs>
    <clipPath id="7_th_2_SVGID_2_">
      <use xlink:href="#7_th_2_SVGID_1_" style="overflow:visible;"></use>
    </clipPath>
    <g style="clip-path:url(#7_th_2_SVGID_2_);">
      <defs>
        <rect id="7_th_2_SVGID_3_" y="3.351" width="494.32" height="494.321"></rect>
      </defs>
      <clipPath id="7_th_2_SVGID_4_">
        <use xlink:href="#7_th_2_SVGID_3_" style="overflow:visible;"></use>
      </clipPath>
      <path style="display:none;clip-path:url(#7_th_2_SVGID_4_);fill:#F3F3F3;" d="M220.393,421.985c8.975,1.419,18.094,2.132,27.316,2.132     c23.413,0,46.153-4.598,67.593-13.665c20.68-8.747,39.24-21.257,55.166-37.182c15.924-15.926,28.434-34.486,37.181-55.165     c9.068-21.44,13.666-44.18,13.666-67.593c0-23.411-4.598-46.153-13.666-67.593c-8.747-20.679-21.257-39.239-37.181-55.165     c-15.926-15.925-34.486-28.435-55.166-37.182c-28.314-13.665-67.593-13.665-67.593-13.665v55.969     c64.968,0,117.636,52.667,117.636,117.636s-52.668,117.636-117.636,117.636c-6.281,0-11.686-0.475-17.7-1.423L220.393,421.985z"></path>
      <path style="clip-path:url(#7_th_2_SVGID_4_);fill:#F3F3F3;" d="M248.362,63.725c103.098,0,186.675,83.578,186.675,186.676     S351.46,437.077,248.362,437.077S61.687,353.499,61.687,250.401S145.264,63.725,248.362,63.725 M248.362,7.756     c-32.732,0-64.515,6.423-94.466,19.091c-28.9,12.224-54.844,29.712-77.11,51.978c-22.266,22.266-39.754,48.21-51.977,77.11     C12.14,185.886,5.717,217.668,5.717,250.401c0,32.732,6.423,64.515,19.092,94.465c12.223,28.902,29.711,54.845,51.977,77.111     c22.266,22.266,48.21,39.754,77.11,51.978c29.951,12.668,61.734,19.091,94.466,19.091s64.515-6.423,94.466-19.091     c28.9-12.224,54.844-29.712,77.11-51.978c22.266-22.266,39.754-48.209,51.977-77.111c12.669-29.95,19.092-61.733,19.092-94.465     c0-32.733-6.423-64.515-19.092-94.466c-12.223-28.9-29.711-54.844-51.977-77.11c-22.266-22.266-48.21-39.754-77.11-51.978     C312.877,14.179,281.094,7.756,248.362,7.756"></path>
      <path style="display:none;clip-path:url(#7_th_2_SVGID_4_);fill:#FDD105;" d="M248.362,7.978L248.362,7.978     c-32.732,0-64.515,6.423-94.466,19.091c-28.9,12.224-54.844,29.712-77.11,51.978c-22.266,22.266-39.754,48.21-51.977,77.11     C12.14,186.108,5.717,217.891,5.717,250.623c0,32.733,6.423,64.515,19.092,94.465c12.223,28.902,29.711,54.845,51.977,77.111     c22.266,22.266,48.21,39.754,77.11,51.978c29.951,12.668,61.734,19.091,94.466,19.091s64.515-6.423,94.466-19.091     c17.697-7.485,34.286-16.945,49.6-28.266l-34.8-43.914c-30.717,22.21-68.462,35.302-109.266,35.302     c-103.098,0-186.675-83.578-186.675-186.676S145.264,63.947,248.362,63.947V7.978z"></path>
      <path style="clip-path:url(#7_th_2_SVGID_4_);fill:#FFFFFF;" d="M131.103,250.804c0-64.983,52.679-117.662,117.662-117.662     c64.982,0,117.661,52.679,117.661,117.662s-52.679,117.662-117.661,117.662C183.782,368.466,131.103,315.787,131.103,250.804"></path>
      <path style="clip-path:url(#7_th_2_SVGID_4_);fill:#FFFFFF;" d="M230.008,366.725c-56.251-8.813-99.282-57.487-99.282-116.213     c0-64.969,52.667-117.636,117.636-117.636V76.907c-23.411,0-46.153,4.598-67.592,13.666c-20.68,8.746-39.24,21.257-55.165,37.181     c-15.926,15.926-28.436,34.486-37.183,55.166c-9.068,21.439-13.665,44.18-13.665,67.592s4.597,46.154,13.665,67.593     c8.747,20.679,21.257,39.24,37.183,55.165c15.925,15.925,34.485,28.435,55.165,37.182c13.01,5.504,26.501,9.36,40.329,11.542     L230.008,366.725z"></path>
    </g>
    <g style="clip-path:url(#7_th_2_SVGID_2_);">
      <defs>
        <rect id="7_th_2_SVGID_5_" x="553.76" y="0.001" width="494.32" height="494.32"></rect>
      </defs>
      <clipPath id="7_th_2_SVGID_6_">
        <use xlink:href="#7_th_2_SVGID_5_" style="overflow:visible;"></use>
      </clipPath>
      <path style="clip-path:url(#7_th_2_SVGID_6_);fill:#F3F3F3;" d="M802.122,60.374c103.098,0,186.675,83.578,186.675,186.676     S905.22,433.726,802.122,433.726S615.447,350.148,615.447,247.05S699.024,60.374,802.122,60.374 M802.122,4.405     c-32.732,0-64.515,6.423-94.466,19.092c-28.9,12.223-54.844,29.711-77.11,51.977c-22.267,22.266-39.754,48.21-51.978,77.11     c-12.668,29.951-19.091,61.734-19.091,94.466c0,32.733,6.423,64.515,19.091,94.465c12.224,28.902,29.711,54.845,51.978,77.111     c22.266,22.266,48.21,39.754,77.11,51.978c29.951,12.668,61.734,19.091,94.466,19.091c32.732,0,64.515-6.423,94.466-19.091     c28.899-12.224,54.844-29.712,77.11-51.978c22.266-22.266,39.754-48.209,51.977-77.111c12.669-29.95,19.091-61.732,19.091-94.465     c0-32.732-6.422-64.515-19.091-94.466c-12.223-28.9-29.711-54.844-51.977-77.11c-22.266-22.266-48.211-39.754-77.11-51.977     C866.637,10.828,834.854,4.405,802.122,4.405"></path>
      <path style="display:none;clip-path:url(#7_th_2_SVGID_6_);fill:#FDD105;" d="M785.222,432.97     c-95.179-8.54-169.776-88.519-169.776-185.921c0-103.098,83.577-186.675,186.676-186.675V4.404     c-32.733,0-64.516,6.423-94.465,19.092c-28.901,12.223-54.846,29.711-77.112,51.977c-22.265,22.266-39.753,48.21-51.977,77.11     c-12.668,29.951-19.091,61.734-19.091,94.466c0,32.733,6.423,64.515,19.091,94.466c12.224,28.901,29.712,54.844,51.977,77.11     c22.266,22.266,48.211,39.754,77.112,51.978c23.848,10.087,48.858,16.215,74.584,18.292L785.222,432.97z"></path>
    </g>
    <polygon style="clip-path:url(#7_th_2_SVGID_2_);fill:#575756;" points="182.872,235.825 171.737,266.423 167.381,266.423     167.381,267.318 178.3,267.318 178.3,266.423 172.966,266.423 183.959,236.22   "></polygon>
    <g style="clip-path:url(#7_th_2_SVGID_2_);">
      <defs>
        <rect id="7_th_2_SVGID_7_" x="162.815" y="227.789" width="157.62" height="40.234"></rect>
      </defs>
      <clipPath id="7_th_2_SVGID_8_">
        <use xlink:href="#7_th_2_SVGID_7_" style="overflow:visible;"></use>
      </clipPath>
      <path style="clip-path:url(#7_th_2_SVGID_8_);fill:#009DE1;" d="M193.651,248.496l-2.181-0.272l-5.517-0.165l-0.748-0.637l-1.116,0.174     v-0.001v0.001l-2.751,0.43h-3.577l-3.56,0.379c-0.053,0.411-0.089,0.828-0.089,1.254c0,5.416,4.391,9.807,9.807,9.807     s9.807-4.391,9.807-9.807C193.726,249.265,193.696,248.878,193.651,248.496"></path>
      <polygon style="clip-path:url(#7_th_2_SVGID_8_);fill:#575756;" points="291.714,242.268 291.714,241.374 281.203,241.374      281.203,242.268 284.93,242.268 284.93,266.423 281.203,266.423 281.203,267.318 291.714,267.318 291.714,266.423      287.987,266.423 287.987,242.268    "></polygon>
      <path style="clip-path:url(#7_th_2_SVGID_8_);fill:#575756;" d="M310.026,254.038c1.434-0.308,6.824-1.624,6.824-6.414     c0-5.522-6.01-6.272-7.176-6.272c-1.166,0-12.889,0.022-12.889,0.022v0.894h3.727v24.155h-3.727v0.895h10.511v-0.895h-3.727     v-12.228h5.289c7.662,3.798-1.969,13.828,11.148,13.127C311.984,267.322,320.435,255.8,310.026,254.038 M303.569,242.268h5.216     c2.08,0,4.252,2.634,4.252,5.527c0,2.96-2.304,5.505-4.252,5.505h-5.216V242.268z"></path>
      <polygon style="clip-path:url(#7_th_2_SVGID_8_);fill:#575756;" points="275.917,266.424 266.774,241.305 266.53,241.305      257.367,266.424 255.068,266.424 255.068,267.318 261.778,267.318 261.778,266.424 258.281,266.424 265.241,247.301      272.201,266.424 268.152,266.424 268.152,267.318 278.663,267.318 278.663,266.424    "></polygon>
      <path style="clip-path:url(#7_th_2_SVGID_8_);fill:#575756;" d="M252.38,241.374h-20.814l-0.461,8.243l0.568-0.013     c0,0,0.809-3.401,1.726-4.742c0.853-1.249,1.988-2.594,3.424-2.594h3.629v24.156h-3.727v0.895h10.511v-0.895h-3.727v-24.156     h3.603c1.483,0,2.571,1.345,3.424,2.594c0.917,1.341,1.726,4.742,1.726,4.742l0.568,0.013L252.38,241.374z"></path>
      <path style="clip-path:url(#7_th_2_SVGID_8_);fill:#575756;" d="M228.864,259.497c0,0-0.769,3.232-1.64,4.506     c-0.75,1.098-1.432,2.149-2.88,2.421h-8.153v-24.156h3.727v-0.894h-10.512v0.894h3.727v24.156h-3.526v0.894h19.359l0.438-7.834     L228.864,259.497z"></path>
      <path style="clip-path:url(#7_th_2_SVGID_8_);fill:#009DE1;" d="M231.484,256.006c5.461,0.362,11.039,0.548,16.594,0.637v-2.82     c-5.357-0.192-10.968-0.499-16.594-0.982V256.006z M219.123,254.816c3.723,0.489,7.562,0.856,11.466,1.13v-3.181     c-3.848-0.343-7.696-0.772-11.466-1.303V254.816z M210.05,253.314c2.712,0.556,5.52,1.024,8.402,1.415v-3.363     c-2.861-0.414-5.672-0.89-8.402-1.435V253.314z M282.615,255.177c-0.093-0.069-6.508-4.812-6.508-4.812s0.89,1.376,1.133,3.743     c-6.479,0.01-16.632,0.133-28.043-0.245v2.797c9.695,0.131,19.289-0.019,28.021-0.027c-0.266,2.265-1.111,3.584-1.111,3.584     s6.303-4.671,6.503-4.814C282.722,255.319,282.708,255.246,282.615,255.177 M203.344,251.699c0.092,0.026,0.18,0.048,0.273,0.074     c1.859,0.52,3.786,0.983,5.762,1.401v-3.375c-2.07-0.419-4.08-0.816-6.035-1.185V251.699z M162.935,253.721     c-0.12,0.118,0.001,0.349,0.173,0.271c9.733-5.437,19.59-7.897,39.565-2.475v-3.028     C185.336,245.268,172.452,244.575,162.935,253.721"></path>
      <polygon style="clip-path:url(#7_th_2_SVGID_8_);fill:#575756;" points="201.309,266.424 187.247,227.789 185.796,227.789      181.582,239.371 182.707,239.66 184.289,235.312 195.456,266.424 189.587,266.424 189.587,267.318 206.584,267.318      206.584,266.424    "></polygon>
      <path style="clip-path:url(#7_th_2_SVGID_8_);fill:#FFFFFF;" d="M189.565,252.97c0,0-1.851-0.382-4.799-0.434     c1.26-1.337,1.946-2.331,1.946-2.331s-0.99,0.653-2.348,1.934c-0.036-1.437-0.157-3.051-0.425-4.794     c-0.257,1.719-0.369,3.342-0.4,4.799c-0.675-0.626-1.455-1.287-2.344-1.938c0.648,0.876,1.318,1.658,1.957,2.34     c-1.441,0.036-3.061,0.156-4.81,0.425c1.72,0.258,3.343,0.369,4.8,0.4c-0.625,0.673-1.283,1.452-1.932,2.338     c0.869-0.644,1.648-1.308,2.326-1.944c0.055,2.9,0.404,4.803,0.404,4.803s0.383-1.851,0.434-4.8     c1.335,1.256,2.325,1.94,2.325,1.94s-0.648-0.983-1.921-2.334C187.668,253.318,189.565,252.97,189.565,252.97"></path>
    </g>
    <g style="clip-path:url(#7_th_2_SVGID_2_);">
      <text transform="matrix(1 0 0 1 318.5073 249.9308)" style="fill:#003B5C; font-family:'Montserrat-Medium'; font-size:17.1017px;">a</text>
    </g>
    <g style="clip-path:url(#7_th_2_SVGID_2_);">
      <text transform="matrix(1 0 0 1 1190.4922 275.8625)">
        <tspan x="0" y="0" style="fill:#003B5C; font-family:'Montserrat-Medium'; font-size:20.6239px;">P</tspan>
        <tspan x="14.519" y="0" style="fill:#003B5C; font-family:'Montserrat-Medium'; font-size:20.6239px;">r</tspan>
        <tspan x="22.748" y="0" style="fill:#003B5C; font-family:'Montserrat-Medium'; font-size:20.6239px;">opo</tspan>
        <tspan x="63.005" y="0" style="fill:#003B5C; font-family:'Montserrat-Medium'; font-size:20.6239px;">r</tspan>
        <tspan x="71.749" y="0" style="fill:#003B5C; font-family:'Montserrat-Medium'; font-size:20.6239px;">tion of</tspan>
        <tspan x="144.654" y="0" style="fill:#003B5C; font-family:'Montserrat-Medium'; font-size:20.6239px;">p</tspan>
        <tspan x="158.637" y="0" style="fill:#003B5C; font-family:'Montserrat-Medium'; font-size:20.6239px;">atients</tspan>
        <tspan x="236.347" y="0" style="fill:#003B5C; font-family:'Montserrat-Medium'; font-size:20.6239px;">a</tspan>
        <tspan x="248.721" y="0" style="fill:#003B5C; font-family:'Montserrat-Medium'; font-size:20.6239px;">c</tspan>
        <tspan x="260.353" y="0" style="fill:#003B5C; font-family:'Montserrat-Medium'; font-size:20.6239px;">hi</tspan>
        <tspan x="280.151" y="0" style="fill:#003B5C; font-family:'Montserrat-Medium'; font-size:20.6239px;">e</tspan>
        <tspan x="292.566" y="0" style="fill:#003B5C; font-family:'Montserrat-Medium'; font-size:20.6239px;">vi</tspan>
        <tspan x="309.85" y="0" style="fill:#003B5C; font-family:'Montserrat-Medium'; font-size:20.6239px;">n</tspan>
        <tspan x="323.956" y="0" style="fill:#003B5C; font-family:'Montserrat-Medium'; font-size:20.6239px;">g</tspan>
      </text>
    </g>
    <g style="clip-path:url(#7_th_2_SVGID_2_);">
      <text transform="matrix(1 0 0 1 1534.2061 275.8625)" style="fill:#003B5C; font-family:'Montserrat-Medium'; font-size:20.6239px;"></text>
    </g>
    <g style="clip-path:url(#7_th_2_SVGID_2_);">
      <text transform="matrix(1 0 0 1 1190.4922 300.6105)">
        <tspan x="0" y="0" style="fill:#003B5C; font-family:'Montserrat-Bold'; font-size:20.6239px;">1</tspan>
        <tspan x="8.085" y="0" style="fill:#003B5C; font-family:'Montserrat-Bold'; font-size:20.6239px;">6</tspan>
        <tspan x="21.305" y="0" style="fill:#003B5C; font-family:'Montserrat-Bold'; font-size:20.6239px;">-w</tspan>
        <tspan x="47.971" y="0" style="fill:#003B5C; font-family:'Montserrat-Bold'; font-size:20.6239px;">eek</tspan>
      </text>
    </g>
    <g style="clip-path:url(#7_th_2_SVGID_2_);">
      <text transform="matrix(1 0 0 1 1283.9385 300.6105)">
        <tspan x="0" y="0" style="fill:#003B5C; font-family:'Montserrat-Medium'; font-size:20.6239px;">dosi</tspan>
        <tspan x="43.248" y="0" style="fill:#003B5C; font-family:'Montserrat-Medium'; font-size:20.6239px;">n</tspan>
        <tspan x="57.334" y="0" style="fill:#003B5C; font-family:'Montserrat-Medium'; font-size:20.6239px;">g at 96</tspan>
        <tspan x="134.527" y="0" style="fill:#003B5C; font-family:'Montserrat-Medium'; font-size:20.6239px;">w</tspan>
        <tspan x="152.779" y="0" style="fill:#003B5C; font-family:'Montserrat-Medium'; font-size:20.6239px;">ee</tspan>
        <tspan x="178.023" y="0" style="fill:#003B5C; font-family:'Montserrat-Medium'; font-size:20.6239px;">k</tspan>
        <tspan x="190.377" y="0" style="fill:#003B5C; font-family:'Montserrat-Medium'; font-size:20.6239px;">s</tspan>
      </text>
    </g>
    <g style="clip-path:url(#7_th_2_SVGID_2_);">
      <defs>
        <rect id="7_th_2_SVGID_9_" x="697.989" y="141.676" width="205.862" height="99.004"></rect>
      </defs>
      <clipPath id="7_th_2_SVGID_10_">
        <use xlink:href="#7_th_2_SVGID_9_" style="overflow:visible;"></use>
      </clipPath>
      <path style="clip-path:url(#7_th_2_SVGID_10_);fill:#BED0EC;" d="M789.326,162.323c-1.668-1.364-3.665-2.048-5.993-2.048     c-2.382,0-4.449,0.702-6.199,2.103c-1.751,1.402-2.955,3.311-3.615,5.73h19.327C792.167,165.617,790.994,163.689,789.326,162.323      M848.29,167.283c-9.079,0.402-19.611-12.357-49.173-23.003c-25.437-9.164-47.408,8.079-56.775,17.506     c-9.363,9.424-12.761,19.394-22.7,22.417c5.287,0,10.508,3.76,14.942,7.252c4.437,3.49,10.041,5.102,10.041,5.102     s-6.922-4.372-10.272-8.057c-4.014-4.415-3.824-5.982-0.234-11.551c3.235-5.015,13.73-12.951,23.092-18.336     c0.669-0.415,1.341-0.8,2.014-1.172c-2.067,3.812-3.241,8.179-3.241,12.82c0,14.88,12.064,26.943,26.943,26.943     c14.881,0,26.943-12.063,26.943-26.943c0-4.573-1.144-8.878-3.154-12.65c0.789,0.329,1.576,0.666,2.35,1.013     c2.207,0.987,12.704,3.136,20.314,9.196c7.607,6.057,5.717,10.401,0.698,17.456c-10.507,14.772-28.035,20.943-28.035,20.943     s13.137-1.282,29.671-15.034c5.408-4.497,10.08-13.901,17.51-17.187c9.106-4.03,9.339-10.475,9.339-10.475     S854.36,167.014,848.29,167.283 M798.824,173.021h-25.471c0.458,2.526,1.6,4.571,3.425,6.135s3.994,2.346,6.508,2.346     c1.797,0,3.435-0.427,4.911-1.282c1.476-0.855,2.655-2.066,3.536-3.63h6.118c-1.395,3.345-3.344,5.903-5.846,7.676     c-2.504,1.772-5.416,2.66-8.736,2.66c-2.237,0-4.283-0.395-6.136-1.184c-1.853-0.789-3.531-1.972-5.035-3.551     c-1.412-1.486-2.518-3.215-3.315-5.187c-0.798-1.972-1.197-3.985-1.197-6.041c0-2.128,0.363-4.118,1.087-5.971     s1.794-3.541,3.207-5.065c1.504-1.651,3.201-2.894,5.091-3.729c1.89-0.834,3.954-1.253,6.193-1.253     c2.661,0,5.133,0.621,7.417,1.86c2.284,1.24,4.17,2.972,5.656,5.194c0.881,1.378,1.532,2.889,1.954,4.533     c0.422,1.643,0.633,3.522,0.633,5.634V173.021z"></path>
    </g>
    <polygon style="clip-path:url(#7_th_2_SVGID_2_);fill:#193F77;" points="706.378,225.812 705.717,225.812 702.756,218.118     703.934,218.118 706.045,223.852 708.166,218.118 709.334,218.118   "></polygon>
    <polygon style="clip-path:url(#7_th_2_SVGID_2_);fill:#193F77;" points="715.407,225.812 711.413,225.812 711.413,218.118     715.407,218.118 715.407,219.145 712.529,219.145 712.529,221.44 715.407,221.44 715.407,222.445 712.529,222.445     712.529,224.751 715.407,224.751   "></polygon>
    <g style="clip-path:url(#7_th_2_SVGID_2_);">
      <defs>
        <rect id="7_th_2_SVGID_11_" x="697.989" y="141.676" width="205.862" height="99.004"></rect>
      </defs>
      <clipPath id="7_th_2_SVGID_12_">
        <use xlink:href="#7_th_2_SVGID_11_" style="overflow:visible;"></use>
      </clipPath>
      <path style="clip-path:url(#7_th_2_SVGID_12_);fill:#193F77;" d="M721.126,221.928h4.773c-0.053,1.202-0.443,2.175-1.17,2.921     c-0.728,0.745-1.649,1.117-2.765,1.117c-0.58,0-1.114-0.11-1.602-0.332c-0.489-0.222-0.928-0.551-1.317-0.988     c-0.329-0.364-0.578-0.775-0.747-1.24c-0.17-0.462-0.254-0.958-0.254-1.487c0-0.539,0.102-1.049,0.307-1.533     c0.205-0.482,0.505-0.917,0.901-1.304c0.373-0.374,0.792-0.653,1.255-0.838c0.462-0.185,0.976-0.277,1.541-0.277     c0.78,0,1.465,0.182,2.052,0.548c0.589,0.364,1.032,0.884,1.332,1.557h-1.372c-0.254-0.327-0.558-0.574-0.913-0.74     c-0.354-0.166-0.748-0.248-1.183-0.248c-0.364,0-0.711,0.068-1.04,0.206c-0.329,0.137-0.621,0.336-0.875,0.596     c-0.265,0.272-0.472,0.587-0.621,0.945c-0.148,0.36-0.224,0.726-0.224,1.099c0,0.401,0.068,0.78,0.203,1.138     c0.134,0.358,0.327,0.667,0.578,0.927c0.265,0.275,0.571,0.487,0.917,0.639c0.347,0.152,0.701,0.227,1.062,0.227     c0.587,0,1.105-0.156,1.554-0.468c0.449-0.312,0.819-0.772,1.109-1.382h-3.501V221.928z"></path>
      <polygon style="clip-path:url(#7_th_2_SVGID_12_);fill:#193F77;" points="728.511,225.812 728.511,218.118 732.3,218.118 732.3,219.145      729.617,219.145 729.617,221.44 732.3,221.44 732.3,222.445 729.617,222.445 729.617,225.812    "></polygon>
      <polygon style="clip-path:url(#7_th_2_SVGID_12_);fill:#193F77;" points="742.004,225.812 740.887,225.812 740.887,219.151      739.448,219.151 739.448,218.118 743.443,218.118 743.443,219.151 742.004,219.151    "></polygon>
      <path style="clip-path:url(#7_th_2_SVGID_12_);fill:#193F77;" d="M746.814,225.812h-1.044v-5.811h0.981v0.671     c0.173-0.256,0.37-0.448,0.594-0.572c0.224-0.126,0.484-0.19,0.78-0.194v1.095c-0.469,0.035-0.804,0.174-1.007,0.414     c-0.203,0.241-0.304,0.63-0.304,1.165V225.812z"></path>
      <path style="clip-path:url(#7_th_2_SVGID_12_);fill:#193F77;" d="M755.208,225.812v-0.713c-0.267,0.278-0.566,0.489-0.896,0.631     c-0.329,0.144-0.681,0.215-1.054,0.215c-0.874,0-1.6-0.292-2.178-0.875c-0.577-0.582-0.866-1.313-0.866-2.19     c0-0.409,0.072-0.796,0.216-1.164c0.145-0.366,0.351-0.688,0.619-0.967c0.292-0.306,0.612-0.532,0.959-0.679     c0.347-0.146,0.743-0.22,1.187-0.22c0.397,0,0.764,0.071,1.098,0.213c0.335,0.141,0.64,0.354,0.915,0.64v-0.702h1.056v5.811     H755.208z M751.297,222.869c0,0.589,0.194,1.081,0.584,1.48c0.389,0.397,0.866,0.596,1.43,0.596c0.515,0,0.967-0.2,1.36-0.599     c0.393-0.4,0.59-0.868,0.59-1.403c0-0.57-0.195-1.059-0.584-1.465c-0.39-0.408-0.851-0.611-1.387-0.611     c-0.55,0-1.02,0.194-1.409,0.582C751.491,221.836,751.297,222.31,751.297,222.869"></path>
      <path style="clip-path:url(#7_th_2_SVGID_12_);fill:#193F77;" d="M760.118,225.109v2.586h-1.045v-7.694h1.056v0.713     c0.268-0.275,0.566-0.484,0.896-0.627c0.329-0.143,0.68-0.214,1.054-0.214c0.877,0,1.605,0.291,2.183,0.873     c0.578,0.581,0.866,1.31,0.866,2.187c0,0.406-0.072,0.791-0.216,1.158c-0.144,0.367-0.353,0.693-0.623,0.978     c-0.294,0.306-0.613,0.533-0.96,0.679c-0.348,0.147-0.743,0.219-1.187,0.219c-0.394,0-0.76-0.072-1.097-0.215     C760.709,225.61,760.399,225.395,760.118,225.109 M760.086,222.869c0,0.574,0.193,1.064,0.579,1.468     c0.386,0.406,0.847,0.608,1.382,0.608c0.546,0,1.015-0.194,1.406-0.583c0.391-0.39,0.586-0.862,0.586-1.419     c0-0.588-0.193-1.081-0.581-1.48c-0.388-0.396-0.862-0.596-1.421-0.596c-0.515,0-0.968,0.2-1.361,0.6     S760.086,222.335,760.086,222.869"></path>
      <rect x="767.554" y="222.423" style="clip-path:url(#7_th_2_SVGID_12_);fill:#193F77;" width="2.633" height="0.972"></rect>
      <polygon style="clip-path:url(#7_th_2_SVGID_12_);fill:#193F77;" points="776.948,225.812 772.954,225.812 772.954,218.118      776.948,218.118 776.948,219.145 774.07,219.145 774.07,221.44 776.948,221.44 776.948,222.445 774.07,222.445 774.07,224.751      776.948,224.751    "></polygon>
      <polygon style="clip-path:url(#7_th_2_SVGID_12_);fill:#193F77;" points="779.295,220.001 780.421,220.001 781.99,224.327      783.692,220.001 784.818,220.001 781.689,227.695 780.585,227.695 781.393,225.651    "></polygon>
      <path style="clip-path:url(#7_th_2_SVGID_12_);fill:#193F77;" d="M787.818,223.289c0.088,0.488,0.307,0.883,0.658,1.186     c0.351,0.301,0.768,0.453,1.25,0.453c0.345,0,0.661-0.083,0.944-0.25c0.284-0.166,0.51-0.402,0.679-0.706h1.178     c-0.267,0.645-0.642,1.14-1.122,1.482c-0.48,0.342-1.04,0.512-1.678,0.512c-0.429,0-0.822-0.075-1.178-0.227     c-0.355-0.152-0.678-0.379-0.966-0.681c-0.271-0.286-0.484-0.618-0.636-0.997c-0.154-0.38-0.231-0.766-0.231-1.161     c0-0.409,0.069-0.791,0.209-1.148c0.139-0.356,0.343-0.679,0.615-0.972c0.289-0.318,0.615-0.557,0.977-0.716     c0.363-0.162,0.758-0.241,1.188-0.241c0.511,0,0.986,0.118,1.424,0.357c0.438,0.237,0.8,0.569,1.086,0.995     c0.168,0.265,0.293,0.554,0.374,0.869c0.081,0.316,0.121,0.677,0.121,1.082v0.163H787.818z M791.566,222.35     c-0.13-0.479-0.356-0.849-0.677-1.112c-0.321-0.262-0.704-0.394-1.152-0.394c-0.459,0-0.856,0.135-1.192,0.405     c-0.337,0.269-0.569,0.637-0.696,1.101H791.566z"></path>
      <path style="clip-path:url(#7_th_2_SVGID_12_);fill:#193F77;" d="M796.723,221.551h-1.067v-1.3h1.067V221.551z M796.723,225.812h-1.067     v-1.3h1.067V225.812z"></path>
      <rect x="804.77" y="218.117" style="clip-path:url(#7_th_2_SVGID_12_);fill:#193F77;" width="1.116" height="7.694"></rect>
      <path style="clip-path:url(#7_th_2_SVGID_12_);fill:#193F77;" d="M809.838,225.811h-1.045V220h1.003v0.662     c0.219-0.261,0.459-0.452,0.722-0.574c0.263-0.121,0.562-0.182,0.901-0.182c0.762,0,1.345,0.223,1.753,0.671     c0.407,0.447,0.61,1.088,0.61,1.924v3.31h-1.05v-3.083c0-0.616-0.114-1.073-0.344-1.37c-0.229-0.298-0.583-0.447-1.063-0.447     c-0.522,0-0.901,0.175-1.135,0.526c-0.234,0.35-0.352,0.928-0.352,1.734V225.811z"></path>
      <polygon style="clip-path:url(#7_th_2_SVGID_12_);fill:#193F77;" points="819.03,225.811 818.242,225.811 816.036,220 817.159,220      818.685,224.242 820.254,220 821.357,220    "></polygon>
      <path style="clip-path:url(#7_th_2_SVGID_12_);fill:#193F77;" d="M824.385,223.289c0.088,0.488,0.307,0.883,0.658,1.186     c0.35,0.301,0.767,0.452,1.25,0.452c0.346,0,0.66-0.083,0.944-0.249c0.284-0.166,0.511-0.402,0.679-0.706h1.178     c-0.267,0.645-0.642,1.14-1.123,1.482c-0.48,0.342-1.039,0.512-1.676,0.512c-0.431,0-0.823-0.075-1.179-0.227     c-0.356-0.152-0.678-0.379-0.967-0.682c-0.27-0.285-0.483-0.617-0.636-0.996c-0.154-0.38-0.23-0.766-0.23-1.161     c0-0.409,0.069-0.791,0.209-1.148c0.139-0.356,0.344-0.679,0.614-0.972c0.29-0.318,0.615-0.557,0.978-0.716     c0.363-0.162,0.759-0.241,1.189-0.241c0.51,0,0.984,0.118,1.423,0.357c0.438,0.236,0.8,0.568,1.085,0.995     c0.168,0.265,0.293,0.554,0.375,0.869c0.081,0.316,0.122,0.677,0.122,1.082v0.163H824.385z M828.133,222.35     c-0.13-0.479-0.356-0.849-0.677-1.112c-0.32-0.262-0.704-0.394-1.152-0.394c-0.459,0-0.855,0.135-1.192,0.405     c-0.337,0.269-0.569,0.637-0.695,1.101H828.133z"></path>
      <path style="clip-path:url(#7_th_2_SVGID_12_);fill:#193F77;" d="M831.412,223.934h0.983c0,0.306,0.085,0.558,0.256,0.757     c0.17,0.199,0.384,0.298,0.643,0.298c0.243,0,0.442-0.075,0.599-0.224c0.157-0.149,0.236-0.34,0.236-0.573     c0-0.205-0.057-0.376-0.167-0.517c-0.111-0.141-0.289-0.26-0.535-0.359c-0.085-0.036-0.205-0.081-0.359-0.137     c-0.413-0.156-0.675-0.278-0.788-0.37c-0.208-0.166-0.361-0.354-0.459-0.563c-0.099-0.21-0.148-0.452-0.148-0.727     c0-0.472,0.165-0.874,0.494-1.205c0.329-0.331,0.732-0.497,1.207-0.497c0.497,0,0.891,0.145,1.183,0.437     c0.293,0.29,0.454,0.699,0.482,1.224h-1.005c-0.018-0.215-0.089-0.383-0.212-0.503c-0.122-0.12-0.288-0.18-0.496-0.18     c-0.186,0-0.342,0.065-0.465,0.193c-0.126,0.129-0.189,0.288-0.189,0.479c0,0.324,0.281,0.59,0.845,0.798     c0.157,0.06,0.282,0.108,0.374,0.142c0.444,0.18,0.76,0.404,0.949,0.672c0.189,0.266,0.283,0.624,0.283,1.071     c0,0.521-0.177,0.955-0.528,1.3c-0.354,0.344-0.798,0.517-1.334,0.517c-0.539,0-0.974-0.181-1.305-0.543     C831.624,225.061,831.443,224.565,831.412,223.934"></path>
      <polygon style="clip-path:url(#7_th_2_SVGID_12_);fill:#193F77;" points="838.001,225.812 838.001,220.951 837.179,220.951      837.179,220.001 838.001,220.001 838.001,218.118 839.04,218.118 839.04,220.001 839.862,220.001 839.862,220.951      839.04,220.951 839.04,225.812    "></polygon>
      <path style="clip-path:url(#7_th_2_SVGID_12_);fill:#193F77;" d="M843.277,219.318h-1.033v-1.2h1.033V219.318z M842.243,220.001h1.033     v5.811h-1.033V220.001z"></path>
      <path style="clip-path:url(#7_th_2_SVGID_12_);fill:#193F77;" d="M846.233,226.278h1.117c0.162,0.271,0.374,0.478,0.636,0.62     c0.263,0.143,0.563,0.214,0.903,0.214c0.589,0,1.062-0.177,1.421-0.531c0.36-0.354,0.541-0.823,0.541-1.408v-0.074     c-0.269,0.278-0.567,0.489-0.897,0.631c-0.329,0.144-0.681,0.215-1.054,0.215c-0.874,0-1.601-0.292-2.178-0.875     c-0.578-0.582-0.867-1.313-0.867-2.19c0-0.409,0.073-0.796,0.217-1.163c0.144-0.367,0.35-0.689,0.618-0.967     c0.293-0.307,0.613-0.533,0.96-0.68c0.347-0.146,0.742-0.219,1.186-0.219c0.394,0,0.761,0.071,1.097,0.212     c0.337,0.142,0.646,0.355,0.927,0.64v-0.702h1.045v4.85c0,1.01-0.262,1.802-0.788,2.374c-0.524,0.573-1.247,0.859-2.168,0.859     c-0.665,0-1.234-0.157-1.707-0.472C846.77,227.297,846.433,226.852,846.233,226.278 M846.939,222.87     c0,0.588,0.194,1.08,0.583,1.479c0.39,0.397,0.867,0.596,1.431,0.596c0.514,0,0.967-0.2,1.36-0.599s0.59-0.867,0.59-1.402     c0-0.571-0.195-1.06-0.584-1.466c-0.39-0.407-0.852-0.61-1.387-0.61c-0.551,0-1.02,0.193-1.41,0.581     C847.133,221.837,846.939,222.311,846.939,222.87"></path>
      <path style="clip-path:url(#7_th_2_SVGID_12_);fill:#193F77;" d="M859.441,225.812v-0.713c-0.268,0.278-0.566,0.489-0.896,0.631     c-0.329,0.144-0.681,0.215-1.054,0.215c-0.873,0-1.6-0.292-2.178-0.875c-0.577-0.582-0.866-1.313-0.866-2.19     c0-0.409,0.072-0.796,0.216-1.163c0.145-0.367,0.351-0.689,0.62-0.967c0.291-0.307,0.611-0.533,0.958-0.68     c0.347-0.146,0.742-0.219,1.186-0.219c0.399,0,0.764,0.071,1.1,0.212c0.334,0.142,0.638,0.355,0.914,0.64v-0.702h1.056v5.811     H859.441z M855.53,222.87c0,0.588,0.194,1.08,0.584,1.479c0.39,0.397,0.866,0.596,1.43,0.596c0.514,0,0.969-0.2,1.36-0.599     c0.393-0.399,0.59-0.867,0.59-1.402c0-0.571-0.194-1.06-0.584-1.466c-0.39-0.407-0.852-0.61-1.387-0.61     c-0.55,0-1.019,0.193-1.409,0.581S855.53,222.311,855.53,222.87"></path>
      <polygon style="clip-path:url(#7_th_2_SVGID_12_);fill:#193F77;" points="863.688,225.812 863.688,220.951 862.866,220.951      862.866,220.001 863.688,220.001 863.688,218.118 864.727,218.118 864.727,220.001 865.549,220.001 865.549,220.951      864.727,220.951 864.727,225.812    "></polygon>
      <path style="clip-path:url(#7_th_2_SVGID_12_);fill:#193F77;" d="M868.964,219.318h-1.034v-1.2h1.034V219.318z M867.93,220.001h1.034     v5.811h-1.034V220.001z"></path>
      <path style="clip-path:url(#7_th_2_SVGID_12_);fill:#193F77;" d="M871.498,222.912c0-0.412,0.069-0.797,0.208-1.153     c0.14-0.359,0.345-0.68,0.615-0.965c0.293-0.313,0.622-0.554,0.989-0.723c0.366-0.169,0.746-0.253,1.14-0.253     c0.423,0,0.815,0.076,1.176,0.226c0.36,0.153,0.688,0.375,0.979,0.671c0.285,0.292,0.505,0.621,0.657,0.987     c0.154,0.366,0.23,0.745,0.23,1.135c0,0.398-0.071,0.785-0.214,1.162c-0.142,0.376-0.342,0.706-0.599,0.986     c-0.296,0.325-0.628,0.57-0.996,0.738c-0.368,0.167-0.759,0.25-1.175,0.25c-0.426,0-0.819-0.076-1.178-0.23     c-0.359-0.152-0.681-0.379-0.967-0.678c-0.271-0.285-0.482-0.617-0.636-0.995C871.575,223.692,871.498,223.306,871.498,222.912      M872.581,222.901c0,0.58,0.184,1.066,0.552,1.452c0.368,0.388,0.826,0.581,1.375,0.581c0.539,0,0.99-0.194,1.354-0.584     c0.365-0.389,0.547-0.875,0.547-1.46c0-0.588-0.182-1.074-0.547-1.458c-0.364-0.383-0.819-0.576-1.364-0.576     c-0.542,0-0.997,0.195-1.365,0.585C872.765,221.829,872.581,222.317,872.581,222.901"></path>
      <path style="clip-path:url(#7_th_2_SVGID_12_);fill:#193F77;" d="M881.06,225.812h-1.044v-5.811h1.002v0.662     c0.219-0.261,0.46-0.452,0.722-0.574c0.262-0.122,0.562-0.183,0.901-0.183c0.762,0,1.346,0.224,1.753,0.672     c0.407,0.447,0.61,1.088,0.61,1.924v3.31h-1.049v-3.084c0-0.616-0.115-1.073-0.344-1.37c-0.23-0.297-0.584-0.446-1.064-0.446     c-0.522,0-0.901,0.175-1.134,0.525c-0.235,0.351-0.353,0.928-0.353,1.735V225.812z"></path>
      <path style="clip-path:url(#7_th_2_SVGID_12_);fill:#193F77;" d="M892.233,222.912c0-0.412,0.069-0.797,0.208-1.153     c0.141-0.359,0.345-0.68,0.615-0.965c0.293-0.313,0.623-0.554,0.989-0.723c0.365-0.169,0.746-0.253,1.141-0.253     c0.421,0,0.813,0.076,1.174,0.226c0.361,0.153,0.688,0.375,0.98,0.671c0.285,0.292,0.505,0.621,0.658,0.987     c0.152,0.366,0.229,0.745,0.229,1.135c0,0.398-0.071,0.785-0.214,1.162c-0.142,0.376-0.342,0.706-0.598,0.986     c-0.297,0.325-0.628,0.57-0.996,0.738c-0.368,0.167-0.76,0.25-1.176,0.25c-0.426,0-0.819-0.076-1.177-0.23     c-0.36-0.152-0.682-0.379-0.966-0.678c-0.272-0.285-0.484-0.617-0.636-0.995C892.308,223.692,892.233,223.306,892.233,222.912      M893.316,222.901c0,0.58,0.184,1.066,0.552,1.452c0.368,0.388,0.826,0.581,1.375,0.581c0.54,0,0.991-0.194,1.355-0.584     c0.363-0.389,0.546-0.875,0.546-1.46c0-0.588-0.183-1.074-0.546-1.458c-0.364-0.383-0.82-0.576-1.366-0.576     c-0.541,0-0.996,0.195-1.364,0.585C893.5,221.829,893.316,222.317,893.316,222.901"></path>
      <path style="clip-path:url(#7_th_2_SVGID_12_);fill:#193F77;" d="M902.085,225.812h-1.039v-4.9h-0.695v-0.911h0.663v-0.175     c0-0.595,0.167-1.043,0.497-1.346c0.33-0.301,0.827-0.451,1.485-0.451v0.966h-0.09c-0.31,0-0.532,0.071-0.666,0.212     c-0.136,0.141-0.202,0.378-0.202,0.709v0.085h0.958v0.911h-0.911V225.812z"></path>
      <polygon style="clip-path:url(#7_th_2_SVGID_12_);fill:#193F77;" points="706.583,238.797 702.589,238.797 702.589,231.102      706.583,231.102 706.583,232.13 703.705,232.13 703.705,234.425 706.583,234.425 706.583,235.43 703.705,235.43 703.705,237.735      706.583,237.735    "></polygon>
      <path style="clip-path:url(#7_th_2_SVGID_12_);fill:#193F77;" d="M710.847,238.797h-1.039v-4.9h-0.694v-0.911h0.662v-0.175     c0-0.595,0.165-1.045,0.497-1.346c0.331-0.301,0.826-0.452,1.485-0.452v0.967h-0.09c-0.311,0-0.534,0.071-0.667,0.212     c-0.135,0.141-0.202,0.378-0.202,0.709v0.085h0.959v0.911h-0.911V238.797z"></path>
      <path style="clip-path:url(#7_th_2_SVGID_12_);fill:#193F77;" d="M715.477,238.797h-1.039v-4.9h-0.695v-0.911h0.664v-0.175     c0-0.595,0.165-1.045,0.496-1.346c0.331-0.301,0.826-0.452,1.485-0.452v0.967h-0.09c-0.31,0-0.533,0.071-0.667,0.212     c-0.135,0.141-0.202,0.378-0.202,0.709v0.085h0.959v0.911h-0.911V238.797z"></path>
      <path style="clip-path:url(#7_th_2_SVGID_12_);fill:#193F77;" d="M719.806,232.302h-1.033v-1.2h1.033V232.302z M718.773,232.985h1.033     v5.811h-1.033V232.985z"></path>
      <path style="clip-path:url(#7_th_2_SVGID_12_);fill:#193F77;" d="M728.195,236.813c-0.243,0.702-0.604,1.235-1.083,1.596     c-0.479,0.363-1.062,0.543-1.749,0.543c-0.433,0-0.826-0.075-1.178-0.226c-0.353-0.148-0.671-0.373-0.957-0.673     c-0.271-0.286-0.484-0.618-0.636-0.997c-0.154-0.378-0.23-0.766-0.23-1.16c0-0.406,0.069-0.786,0.209-1.14     c0.139-0.355,0.344-0.677,0.615-0.97c0.299-0.321,0.636-0.565,1.009-0.731c0.373-0.164,0.773-0.247,1.199-0.247     c0.666,0,1.244,0.183,1.733,0.552c0.49,0.369,0.847,0.886,1.068,1.553h-1.145c-0.183-0.358-0.419-0.625-0.708-0.802     c-0.289-0.176-0.635-0.265-1.036-0.265c-0.519,0-0.957,0.196-1.319,0.588c-0.361,0.392-0.542,0.876-0.542,1.451     c0,0.582,0.183,1.068,0.55,1.457c0.366,0.388,0.823,0.582,1.369,0.582c0.367,0,0.698-0.096,0.994-0.29     c0.296-0.193,0.527-0.467,0.692-0.821H728.195z"></path>
      <path style="clip-path:url(#7_th_2_SVGID_12_);fill:#193F77;" d="M735.558,238.797v-0.713c-0.268,0.278-0.567,0.489-0.896,0.631     c-0.329,0.143-0.68,0.215-1.054,0.215c-0.873,0-1.6-0.291-2.178-0.875c-0.577-0.582-0.866-1.313-0.866-2.191     c0-0.409,0.072-0.796,0.216-1.163c0.145-0.366,0.351-0.688,0.618-0.967c0.294-0.306,0.613-0.532,0.96-0.679     c0.347-0.146,0.743-0.22,1.186-0.22c0.399,0,0.765,0.071,1.1,0.213c0.335,0.141,0.639,0.354,0.914,0.64v-0.702h1.055v5.811     H735.558z M731.647,235.854c0,0.589,0.195,1.081,0.584,1.479c0.39,0.398,0.866,0.597,1.43,0.597c0.514,0,0.968-0.2,1.361-0.599     c0.392-0.4,0.589-0.868,0.589-1.403c0-0.57-0.195-1.059-0.584-1.466c-0.39-0.406-0.852-0.609-1.388-0.609     c-0.549,0-1.018,0.193-1.408,0.581C731.842,234.821,731.647,235.295,731.647,235.854"></path>
      <path style="clip-path:url(#7_th_2_SVGID_12_);fill:#193F77;" d="M744.967,236.813c-0.243,0.702-0.605,1.235-1.084,1.596     c-0.478,0.363-1.061,0.543-1.748,0.543c-0.434,0-0.826-0.075-1.178-0.226c-0.353-0.148-0.672-0.373-0.957-0.673     c-0.271-0.286-0.483-0.618-0.636-0.997c-0.154-0.378-0.231-0.766-0.231-1.16c0-0.406,0.07-0.786,0.21-1.14     c0.139-0.355,0.344-0.677,0.616-0.97c0.298-0.321,0.635-0.565,1.009-0.731c0.373-0.164,0.773-0.247,1.199-0.247     c0.665,0,1.243,0.183,1.733,0.552c0.489,0.369,0.845,0.886,1.067,1.553h-1.145c-0.183-0.358-0.419-0.625-0.708-0.802     c-0.289-0.176-0.634-0.265-1.036-0.265c-0.518,0-0.958,0.196-1.319,0.588c-0.362,0.392-0.542,0.876-0.542,1.451     c0,0.582,0.183,1.068,0.55,1.457c0.367,0.388,0.823,0.582,1.37,0.582c0.366,0,0.697-0.096,0.993-0.29     c0.297-0.193,0.527-0.467,0.692-0.821H744.967z"></path>
      <polygon style="clip-path:url(#7_th_2_SVGID_12_);fill:#193F77;" points="747.047,232.985 748.172,232.985 749.741,237.311      751.443,232.985 752.569,232.985 749.44,240.68 748.336,240.68 749.144,238.634    "></polygon>
      <path style="clip-path:url(#7_th_2_SVGID_12_);fill:#193F77;" d="M764.215,238.797v-0.713c-0.268,0.278-0.567,0.489-0.896,0.631     c-0.33,0.143-0.681,0.215-1.055,0.215c-0.873,0-1.599-0.291-2.177-0.875c-0.577-0.582-0.866-1.313-0.866-2.191     c0-0.409,0.072-0.796,0.217-1.163c0.144-0.366,0.349-0.688,0.617-0.967c0.293-0.306,0.613-0.532,0.959-0.679     c0.348-0.146,0.743-0.22,1.187-0.22c0.398,0,0.765,0.071,1.1,0.213c0.334,0.141,0.639,0.354,0.914,0.64v-0.702h1.056v5.811     H764.215z M760.304,235.854c0,0.589,0.194,1.081,0.583,1.479c0.39,0.398,0.867,0.597,1.43,0.597c0.515,0,0.968-0.2,1.361-0.599     c0.393-0.4,0.59-0.868,0.59-1.403c0-0.57-0.195-1.059-0.585-1.466c-0.389-0.406-0.851-0.609-1.387-0.609     c-0.55,0-1.019,0.193-1.409,0.581C760.498,234.821,760.304,235.295,760.304,235.854"></path>
      <path style="clip-path:url(#7_th_2_SVGID_12_);fill:#193F77;" d="M769.151,238.797h-1.045v-5.811h1.003v0.661     c0.218-0.26,0.458-0.452,0.721-0.574c0.263-0.121,0.564-0.182,0.902-0.182c0.761,0,1.346,0.224,1.752,0.672     c0.408,0.447,0.611,1.088,0.611,1.923v3.311h-1.05v-3.084c0-0.616-0.114-1.073-0.344-1.37c-0.229-0.298-0.584-0.446-1.063-0.446     c-0.522,0-0.901,0.175-1.136,0.525c-0.234,0.351-0.351,0.928-0.351,1.734V238.797z"></path>
      <path style="clip-path:url(#7_th_2_SVGID_12_);fill:#193F77;" d="M780.644,238.797v-0.713c-0.268,0.278-0.567,0.489-0.896,0.631     c-0.33,0.143-0.681,0.215-1.055,0.215c-0.874,0-1.599-0.291-2.178-0.875c-0.577-0.582-0.866-1.313-0.866-2.191     c0-0.409,0.072-0.796,0.216-1.163c0.145-0.366,0.351-0.688,0.619-0.967c0.292-0.306,0.612-0.532,0.959-0.679     c0.348-0.146,0.743-0.22,1.187-0.22c0.394,0,0.76,0.071,1.097,0.213c0.336,0.14,0.645,0.354,0.927,0.64v-2.586h1.045v7.695     H780.644z M776.732,235.854c0,0.589,0.194,1.081,0.585,1.479c0.389,0.398,0.865,0.597,1.429,0.597c0.515,0,0.968-0.2,1.361-0.599     c0.393-0.4,0.589-0.868,0.589-1.403c0-0.57-0.194-1.059-0.584-1.466c-0.389-0.406-0.851-0.609-1.388-0.609     c-0.549,0-1.018,0.193-1.407,0.581C776.926,234.821,776.732,235.295,776.732,235.854"></path>
      <path style="clip-path:url(#7_th_2_SVGID_12_);fill:#193F77;" d="M788.905,236.579h1c0.017,0.398,0.135,0.717,0.354,0.954     c0.218,0.238,0.501,0.357,0.851,0.357c0.383,0,0.69-0.119,0.921-0.357s0.346-0.556,0.346-0.955c0-0.349-0.085-0.618-0.253-0.81     c-0.17-0.189-0.524-0.367-1.063-0.534c-0.028-0.006-0.075-0.019-0.142-0.036c-0.646-0.173-1.112-0.457-1.401-0.85     c-0.131-0.173-0.228-0.357-0.293-0.552s-0.098-0.405-0.098-0.626c0-0.658,0.195-1.191,0.587-1.598     c0.391-0.406,0.904-0.609,1.538-0.609c0.589,0,1.063,0.182,1.425,0.545c0.361,0.365,0.561,0.865,0.6,1.499h-1.039     c-0.017-0.305-0.121-0.552-0.31-0.74c-0.189-0.189-0.427-0.283-0.713-0.283c-0.307,0-0.556,0.106-0.749,0.314     c-0.193,0.21-0.289,0.479-0.289,0.809c0,0.116,0.017,0.225,0.053,0.327c0.035,0.101,0.089,0.196,0.164,0.284     c0.151,0.179,0.476,0.333,0.973,0.464c0.229,0.059,0.405,0.111,0.528,0.153c0.507,0.19,0.893,0.467,1.155,0.831     c0.263,0.363,0.394,0.797,0.394,1.306c0,0.743-0.212,1.342-0.635,1.797c-0.422,0.455-0.983,0.682-1.68,0.682     c-0.655,0-1.188-0.217-1.599-0.652C789.12,237.865,788.912,237.292,788.905,236.579"></path>
      <path style="clip-path:url(#7_th_2_SVGID_12_);fill:#193F77;" d="M800.717,238.797v-0.713c-0.268,0.278-0.566,0.489-0.895,0.631     c-0.331,0.143-0.681,0.215-1.055,0.215c-0.874,0-1.599-0.291-2.176-0.875c-0.578-0.582-0.867-1.313-0.867-2.191     c0-0.409,0.072-0.796,0.216-1.163c0.145-0.366,0.351-0.688,0.619-0.967c0.292-0.306,0.612-0.532,0.959-0.679     c0.347-0.146,0.742-0.22,1.187-0.22c0.396,0,0.763,0.071,1.098,0.213c0.334,0.141,0.639,0.354,0.914,0.64v-0.702h1.056v5.811     H800.717z M796.807,235.854c0,0.589,0.194,1.081,0.584,1.479c0.389,0.398,0.865,0.597,1.429,0.597c0.515,0,0.968-0.2,1.361-0.599     c0.392-0.4,0.589-0.868,0.589-1.403c0-0.57-0.194-1.059-0.584-1.466c-0.389-0.406-0.851-0.609-1.387-0.609     c-0.549,0-1.019,0.193-1.408,0.581C797.001,234.821,796.807,235.295,796.807,235.854"></path>
      <path style="clip-path:url(#7_th_2_SVGID_12_);fill:#193F77;" d="M805.943,238.797h-1.039v-4.9h-0.694v-0.911h0.663v-0.175     c0-0.595,0.166-1.045,0.496-1.346c0.331-0.301,0.826-0.452,1.485-0.452v0.967h-0.091c-0.31,0-0.532,0.071-0.666,0.212     c-0.135,0.141-0.202,0.378-0.202,0.709v0.085h0.959v0.911h-0.911V238.797z"></path>
      <path style="clip-path:url(#7_th_2_SVGID_12_);fill:#193F77;" d="M810.011,236.274c0.089,0.488,0.308,0.883,0.659,1.185     c0.351,0.303,0.768,0.454,1.25,0.454c0.346,0,0.66-0.083,0.944-0.25c0.283-0.166,0.511-0.402,0.68-0.706h1.177     c-0.268,0.645-0.642,1.139-1.123,1.482c-0.481,0.342-1.04,0.513-1.677,0.513c-0.43,0-0.822-0.076-1.179-0.228     c-0.355-0.152-0.677-0.379-0.965-0.681c-0.271-0.287-0.483-0.619-0.637-0.998c-0.154-0.379-0.23-0.765-0.23-1.16     c0-0.409,0.07-0.792,0.208-1.148c0.14-0.356,0.345-0.679,0.616-0.973c0.288-0.317,0.615-0.556,0.977-0.716     c0.362-0.161,0.758-0.24,1.189-0.24c0.51,0,0.984,0.118,1.423,0.356c0.439,0.238,0.8,0.57,1.085,0.996     c0.169,0.265,0.294,0.554,0.375,0.869c0.082,0.316,0.122,0.676,0.122,1.082v0.163H810.011z M813.76,235.335     c-0.13-0.479-0.356-0.849-0.677-1.112c-0.32-0.262-0.705-0.394-1.152-0.394c-0.459,0-0.856,0.135-1.192,0.405     c-0.337,0.269-0.569,0.636-0.696,1.101H813.76z"></path>
      <polygon style="clip-path:url(#7_th_2_SVGID_12_);fill:#193F77;" points="817.795,238.797 817.795,233.936 816.972,233.936      816.972,232.986 817.795,232.986 817.795,231.102 818.834,231.102 818.834,232.986 819.656,232.986 819.656,233.936      818.834,233.936 818.834,238.797    "></polygon>
      <polygon style="clip-path:url(#7_th_2_SVGID_12_);fill:#193F77;" points="821.454,232.985 822.579,232.985 824.149,237.311      825.85,232.985 826.976,232.985 823.847,240.68 822.743,240.68 823.551,238.634    "></polygon>
      <path style="clip-path:url(#7_th_2_SVGID_12_);fill:#193F77;" d="M834.955,232.302h-1.033v-1.2h1.033V232.302z M833.921,232.985h1.033     v5.811h-1.033V232.985z"></path>
      <path style="clip-path:url(#7_th_2_SVGID_12_);fill:#193F77;" d="M838.871,238.797h-1.045v-5.811h1.003v0.662     c0.218-0.261,0.459-0.453,0.722-0.575c0.263-0.121,0.563-0.182,0.901-0.182c0.762,0,1.346,0.224,1.753,0.672     c0.408,0.447,0.612,1.088,0.612,1.923v3.311h-1.051v-3.084c0-0.616-0.115-1.073-0.344-1.37c-0.23-0.298-0.584-0.446-1.064-0.446     c-0.522,0-0.901,0.175-1.134,0.526c-0.235,0.35-0.353,0.927-0.353,1.734V238.797z"></path>
      <polygon style="clip-path:url(#7_th_2_SVGID_12_);fill:#193F77;" points="849.605,231.103 850.738,231.103 852.408,237.032      853.911,231.103 854.748,231.103 856.245,237.032 857.909,231.103 859.044,231.103 856.722,238.797 855.71,238.797      854.325,233.053 852.927,238.797 851.932,238.797    "></polygon>
      <path style="clip-path:url(#7_th_2_SVGID_12_);fill:#193F77;" d="M861.899,236.274c0.088,0.488,0.307,0.884,0.658,1.186     c0.351,0.302,0.768,0.454,1.25,0.454c0.346,0,0.661-0.084,0.944-0.25c0.284-0.167,0.51-0.402,0.679-0.707h1.178     c-0.268,0.645-0.641,1.14-1.122,1.482c-0.482,0.342-1.041,0.513-1.678,0.513c-0.429,0-0.822-0.076-1.178-0.227     c-0.356-0.152-0.678-0.379-0.966-0.682c-0.272-0.287-0.483-0.618-0.637-0.997c-0.154-0.38-0.23-0.766-0.23-1.161     c0-0.409,0.07-0.792,0.209-1.147c0.139-0.357,0.344-0.68,0.614-0.973c0.29-0.318,0.616-0.557,0.978-0.717     c0.363-0.161,0.759-0.24,1.189-0.24c0.51,0,0.984,0.118,1.423,0.356c0.438,0.238,0.8,0.57,1.085,0.996     c0.168,0.265,0.294,0.554,0.375,0.869c0.081,0.316,0.121,0.676,0.121,1.082v0.163H861.899z M865.648,235.335     c-0.131-0.479-0.356-0.849-0.677-1.111c-0.32-0.263-0.705-0.394-1.152-0.394c-0.459,0-0.855,0.135-1.192,0.404     c-0.337,0.269-0.568,0.636-0.696,1.101H865.648z"></path>
      <polygon style="clip-path:url(#7_th_2_SVGID_12_);fill:#193F77;" points="869.682,238.797 869.682,233.936 868.86,233.936      868.86,232.986 869.682,232.986 869.682,231.103 870.721,231.103 870.721,232.986 871.543,232.986 871.543,233.936      870.721,233.936 870.721,238.797    "></polygon>
      <path style="clip-path:url(#7_th_2_SVGID_12_);fill:#193F77;" d="M879.738,236.558l-0.866,2.239h-1.18l3.007-7.694h1.083l3.005,7.694     h-1.219l-0.846-2.239H879.738z M882.321,235.475l-1.083-2.924l-1.104,2.924H882.321z"></path>
      <polygon style="clip-path:url(#7_th_2_SVGID_12_);fill:#193F77;" points="887.909,238.797 886.836,238.797 886.836,231.103      888.49,231.103 890.72,237.053 892.949,231.103 894.582,231.103 894.582,238.797 893.536,238.797 893.609,232.117      891.11,238.797 890.318,238.797 887.831,232.117    "></polygon>
      <path style="clip-path:url(#7_th_2_SVGID_12_);fill:#193F77;" d="M899.673,238.796h-2.161v-7.694h2.478c1.155,0,2.087,0.358,2.796,1.072     c0.71,0.716,1.066,1.65,1.066,2.802c0,0.654-0.134,1.252-0.399,1.791c-0.267,0.539-0.649,0.989-1.15,1.347     c-0.338,0.244-0.698,0.418-1.082,0.524C900.836,238.743,900.322,238.796,899.673,238.796 M898.596,237.769h1.351     c0.855,0,1.531-0.249,2.03-0.75c0.497-0.498,0.748-1.176,0.748-2.033c0-0.888-0.264-1.582-0.793-2.084     c-0.528-0.499-1.258-0.75-2.192-0.75h-1.144V237.769z"></path>
      <polygon style="clip-path:url(#7_th_2_SVGID_12_);fill:#193F77;" points="713.608,186.067 709.529,186.067 697.989,155.803      703.869,155.803 711.828,177.896 719.996,155.803 725.751,155.803    "></polygon>
      <rect x="743.182" y="155.803" style="clip-path:url(#7_th_2_SVGID_12_);fill:#193F77;" width="5.375" height="30.264"></rect>
      <polygon style="clip-path:url(#7_th_2_SVGID_12_);fill:#193F77;" points="834.565,165.57 828.357,186.067 825.299,186.067      814.825,155.803 820.625,155.803 826.842,175.805 832.993,155.803 836.329,155.803 842.423,175.805 848.663,155.803      854.405,155.803 843.884,186.068 840.825,186.068    "></polygon>
      <polygon style="clip-path:url(#7_th_2_SVGID_12_);fill:#193F77;" points="902.028,186.283 896.187,186.283 896.187,162.888      891.591,162.888 891.591,158.161 896.094,155.756 902.028,155.756    "></polygon>
    </g>
    <g style="clip-path:url(#7_th_2_SVGID_2_);">
      <defs>
        <rect id="7_th_2_SVGID_13_" x="697.264" y="265.8" width="207.312" height="99.004"></rect>
      </defs>
      <clipPath id="7_th_2_SVGID_14_">
        <use xlink:href="#7_th_2_SVGID_13_" style="overflow:visible;"></use>
      </clipPath>
      <path style="clip-path:url(#7_th_2_SVGID_14_);fill:#C7BDB3;" d="M788.601,286.448c-1.667-1.365-3.664-2.048-5.992-2.048     c-2.383,0-4.449,0.702-6.199,2.102c-1.752,1.402-2.956,3.313-3.615,5.731h19.326     C791.442,289.742,790.269,287.813,788.601,286.448 M847.567,291.408c-9.08,0.401-19.612-12.357-49.174-23.004     c-25.438-9.164-47.408,8.079-56.775,17.506c-9.364,9.424-12.762,19.395-22.7,22.418c5.287,0,10.508,3.76,14.942,7.252     c4.437,3.49,10.04,5.102,10.04,5.102s-6.922-4.373-10.272-8.057c-4.014-4.414-3.824-5.982-0.233-11.55     c3.234-5.017,13.728-12.952,23.092-18.338c0.669-0.414,1.341-0.8,2.013-1.172c-2.067,3.813-3.24,8.179-3.24,12.82     c0,14.881,12.063,26.944,26.943,26.944s26.943-12.063,26.943-26.944c0-4.573-1.143-8.877-3.154-12.65     c0.79,0.331,1.576,0.666,2.351,1.014c2.206,0.988,12.704,3.136,20.313,9.196c7.607,6.057,5.718,10.401,0.699,17.456     c-10.507,14.772-28.036,20.943-28.036,20.943s13.138-1.282,29.672-15.034c5.408-4.497,10.079-13.902,17.51-17.188     c9.106-4.029,9.339-10.474,9.339-10.474S853.637,291.138,847.567,291.408 M798.1,297.146h-25.472     c0.458,2.526,1.601,4.571,3.426,6.135s3.994,2.346,6.507,2.346c1.798,0,3.435-0.427,4.911-1.283     c1.477-0.854,2.656-2.065,3.536-3.629h6.119c-1.395,3.345-3.343,5.903-5.847,7.676c-2.504,1.772-5.416,2.658-8.735,2.658     c-2.238,0-4.284-0.393-6.137-1.182c-1.852-0.789-3.53-1.973-5.034-3.551c-1.413-1.486-2.518-3.214-3.316-5.187     c-0.798-1.973-1.197-3.986-1.197-6.041c0-2.129,0.363-4.118,1.088-5.972c0.725-1.852,1.793-3.541,3.206-5.064     c1.505-1.651,3.201-2.894,5.092-3.73c1.889-0.833,3.953-1.251,6.193-1.251c2.66,0,5.132,0.619,7.417,1.859     c2.284,1.24,4.169,2.971,5.655,5.194c0.881,1.378,1.533,2.889,1.955,4.532c0.422,1.644,0.633,3.522,0.633,5.634V297.146z"></path>
    </g>
    <polygon style="clip-path:url(#7_th_2_SVGID_2_);fill:#8E2424;" points="705.653,349.936 704.992,349.936 702.031,342.242     703.209,342.242 705.32,347.976 707.441,342.242 708.609,342.242   "></polygon>
    <polygon style="clip-path:url(#7_th_2_SVGID_2_);fill:#8E2424;" points="714.682,349.936 710.687,349.936 710.687,342.242     714.682,342.242 714.682,343.269 711.804,343.269 711.804,345.564 714.682,345.564 714.682,346.57 711.804,346.57     711.804,348.875 714.682,348.875   "></polygon>
    <g style="clip-path:url(#7_th_2_SVGID_2_);">
      <defs>
        <rect id="7_th_2_SVGID_15_" x="697.264" y="265.8" width="207.312" height="99.004"></rect>
      </defs>
      <clipPath id="7_th_2_SVGID_16_">
        <use xlink:href="#7_th_2_SVGID_15_" style="overflow:visible;"></use>
      </clipPath>
      <path style="clip-path:url(#7_th_2_SVGID_16_);fill:#8E2424;" d="M720.401,346.052h4.773c-0.053,1.202-0.443,2.176-1.17,2.922     c-0.728,0.744-1.65,1.118-2.765,1.118c-0.58,0-1.114-0.111-1.602-0.333c-0.489-0.223-0.929-0.552-1.317-0.988     c-0.329-0.364-0.578-0.776-0.747-1.239c-0.17-0.464-0.255-0.959-0.255-1.489c0-0.538,0.103-1.049,0.307-1.531     c0.206-0.483,0.506-0.919,0.902-1.306c0.373-0.373,0.791-0.652,1.255-0.837c0.462-0.185,0.976-0.277,1.542-0.277     c0.779,0,1.464,0.182,2.052,0.548c0.588,0.364,1.031,0.883,1.331,1.557h-1.372c-0.254-0.328-0.558-0.574-0.912-0.74     c-0.355-0.166-0.749-0.25-1.184-0.25c-0.364,0-0.711,0.07-1.04,0.207s-0.621,0.337-0.875,0.597     c-0.265,0.272-0.472,0.586-0.621,0.946c-0.148,0.359-0.224,0.725-0.224,1.098c0,0.401,0.067,0.781,0.203,1.138     c0.134,0.357,0.327,0.666,0.578,0.927c0.265,0.275,0.571,0.488,0.917,0.639c0.347,0.151,0.701,0.226,1.062,0.226     c0.588,0,1.105-0.155,1.554-0.467c0.449-0.312,0.819-0.772,1.109-1.382h-3.501V346.052z"></path>
      <polygon style="clip-path:url(#7_th_2_SVGID_16_);fill:#8E2424;" points="727.786,349.936 727.786,342.242 731.575,342.242      731.575,343.269 728.892,343.269 728.892,345.564 731.575,345.564 731.575,346.57 728.892,346.57 728.892,349.936    "></polygon>
      <polygon style="clip-path:url(#7_th_2_SVGID_16_);fill:#8E2424;" points="741.28,349.936 740.163,349.936 740.163,343.275      738.724,343.275 738.724,342.242 742.718,342.242 742.718,343.275 741.28,343.275    "></polygon>
      <path style="clip-path:url(#7_th_2_SVGID_16_);fill:#8E2424;" d="M746.089,349.936h-1.044v-5.811h0.981v0.672     c0.173-0.258,0.37-0.448,0.594-0.573c0.224-0.126,0.484-0.19,0.78-0.193v1.094c-0.469,0.035-0.804,0.173-1.007,0.414     c-0.203,0.241-0.304,0.63-0.304,1.165V349.936z"></path>
      <path style="clip-path:url(#7_th_2_SVGID_16_);fill:#8E2424;" d="M754.483,349.937v-0.713c-0.267,0.278-0.566,0.489-0.895,0.631     c-0.33,0.144-0.682,0.215-1.055,0.215c-0.874,0-1.6-0.291-2.177-0.875c-0.579-0.583-0.867-1.313-0.867-2.191     c0-0.408,0.073-0.796,0.217-1.163c0.144-0.366,0.351-0.688,0.618-0.967c0.293-0.306,0.612-0.532,0.959-0.679     c0.347-0.147,0.743-0.219,1.187-0.219c0.398,0,0.764,0.071,1.099,0.211c0.335,0.142,0.639,0.355,0.914,0.641v-0.702h1.056v5.811     H754.483z M750.572,346.994c0,0.588,0.195,1.081,0.585,1.479c0.388,0.398,0.866,0.597,1.429,0.597c0.515,0,0.968-0.2,1.361-0.599     c0.393-0.4,0.59-0.868,0.59-1.403c0-0.57-0.196-1.059-0.585-1.466c-0.388-0.406-0.851-0.61-1.387-0.61     c-0.55,0-1.02,0.194-1.408,0.581C750.767,345.961,750.572,346.435,750.572,346.994"></path>
      <path style="clip-path:url(#7_th_2_SVGID_16_);fill:#8E2424;" d="M759.393,349.233v2.587h-1.045v-7.694h1.055v0.712     c0.269-0.274,0.567-0.483,0.896-0.626c0.33-0.143,0.682-0.214,1.055-0.214c0.877,0,1.605,0.291,2.183,0.872     c0.578,0.582,0.866,1.31,0.866,2.189c0,0.404-0.072,0.79-0.216,1.157c-0.144,0.367-0.353,0.692-0.624,0.978     c-0.293,0.306-0.612,0.533-0.959,0.679c-0.347,0.146-0.744,0.219-1.186,0.219c-0.396,0-0.761-0.071-1.098-0.214     C759.984,349.735,759.674,349.519,759.393,349.233 M759.362,346.994c0,0.574,0.193,1.064,0.579,1.469     c0.386,0.406,0.846,0.607,1.383,0.607c0.544,0,1.014-0.194,1.405-0.584c0.392-0.389,0.586-0.861,0.586-1.418     c0-0.587-0.193-1.08-0.581-1.479c-0.387-0.397-0.861-0.597-1.421-0.597c-0.516,0-0.969,0.2-1.361,0.6     C759.558,345.992,759.362,346.459,759.362,346.994"></path>
      <rect x="766.829" y="346.547" style="clip-path:url(#7_th_2_SVGID_16_);fill:#8E2424;" width="2.633" height="0.972"></rect>
      <polygon style="clip-path:url(#7_th_2_SVGID_16_);fill:#8E2424;" points="776.223,349.936 772.228,349.936 772.228,342.242      776.223,342.242 776.223,343.269 773.345,343.269 773.345,345.564 776.223,345.564 776.223,346.57 773.345,346.57      773.345,348.875 776.223,348.875    "></polygon>
      <polygon style="clip-path:url(#7_th_2_SVGID_16_);fill:#8E2424;" points="778.57,344.125 779.696,344.125 781.266,348.451      782.967,344.125 784.092,344.125 780.964,351.819 779.86,351.819 780.668,349.774    "></polygon>
      <path style="clip-path:url(#7_th_2_SVGID_16_);fill:#8E2424;" d="M787.093,347.414c0.089,0.488,0.308,0.884,0.659,1.185     c0.35,0.302,0.767,0.454,1.25,0.454c0.345,0,0.66-0.083,0.944-0.249c0.284-0.167,0.509-0.402,0.678-0.707h1.178     c-0.267,0.646-0.642,1.14-1.122,1.482c-0.481,0.342-1.041,0.513-1.678,0.513c-0.429,0-0.821-0.076-1.177-0.227     c-0.356-0.153-0.679-0.38-0.968-0.683c-0.27-0.285-0.483-0.617-0.635-0.997c-0.153-0.379-0.23-0.765-0.23-1.16     c0-0.409,0.068-0.791,0.208-1.147c0.138-0.356,0.344-0.68,0.615-0.973c0.289-0.318,0.615-0.557,0.978-0.717     c0.362-0.16,0.758-0.241,1.188-0.241c0.51,0,0.984,0.119,1.423,0.357c0.438,0.238,0.8,0.57,1.086,0.997     c0.168,0.264,0.294,0.553,0.374,0.869c0.081,0.315,0.121,0.675,0.121,1.081v0.163H787.093z M790.841,346.475     c-0.13-0.479-0.356-0.849-0.676-1.112c-0.321-0.262-0.705-0.393-1.152-0.393c-0.459,0-0.856,0.135-1.193,0.404     c-0.337,0.269-0.568,0.637-0.696,1.101H790.841z"></path>
      <path style="clip-path:url(#7_th_2_SVGID_16_);fill:#8E2424;" d="M795.998,345.675h-1.066v-1.3h1.066V345.675z M795.998,349.936h-1.066     v-1.3h1.066V349.936z"></path>
      <rect x="804.045" y="342.242" style="clip-path:url(#7_th_2_SVGID_16_);fill:#8E2424;" width="1.117" height="7.694"></rect>
      <path style="clip-path:url(#7_th_2_SVGID_16_);fill:#8E2424;" d="M809.115,349.936h-1.045v-5.811h1.003v0.662     c0.218-0.261,0.458-0.452,0.721-0.574c0.263-0.121,0.563-0.182,0.902-0.182c0.76,0,1.344,0.223,1.753,0.671     c0.406,0.447,0.61,1.088,0.61,1.924v3.31h-1.05v-3.084c0-0.615-0.115-1.072-0.344-1.369c-0.229-0.298-0.583-0.447-1.063-0.447     c-0.523,0-0.901,0.175-1.135,0.526c-0.235,0.35-0.352,0.927-0.352,1.734V349.936z"></path>
      <polygon style="clip-path:url(#7_th_2_SVGID_16_);fill:#8E2424;" points="818.307,349.936 817.518,349.936 815.313,344.125      816.436,344.125 817.962,348.367 819.53,344.125 820.634,344.125    "></polygon>
      <path style="clip-path:url(#7_th_2_SVGID_16_);fill:#8E2424;" d="M823.662,347.414c0.087,0.488,0.306,0.884,0.657,1.185     c0.35,0.302,0.767,0.454,1.25,0.454c0.346,0,0.66-0.083,0.944-0.249c0.284-0.167,0.51-0.402,0.68-0.707h1.177     c-0.267,0.646-0.642,1.14-1.123,1.482c-0.48,0.342-1.039,0.513-1.677,0.513c-0.429,0-0.822-0.076-1.178-0.227     c-0.356-0.153-0.678-0.38-0.967-0.683c-0.271-0.285-0.483-0.617-0.636-0.997c-0.153-0.379-0.23-0.765-0.23-1.16     c0-0.409,0.07-0.791,0.209-1.147c0.139-0.356,0.344-0.68,0.615-0.973c0.289-0.318,0.615-0.557,0.977-0.717     c0.363-0.16,0.759-0.241,1.189-0.241c0.51,0,0.984,0.119,1.423,0.357c0.437,0.238,0.8,0.57,1.085,0.997     c0.169,0.264,0.293,0.553,0.375,0.869c0.081,0.315,0.122,0.675,0.122,1.081v0.163H823.662z M827.409,346.475     c-0.13-0.479-0.357-0.849-0.677-1.112c-0.32-0.262-0.705-0.393-1.152-0.393c-0.458,0-0.856,0.135-1.192,0.404     c-0.337,0.269-0.569,0.637-0.696,1.101H827.409z"></path>
      <path style="clip-path:url(#7_th_2_SVGID_16_);fill:#8E2424;" d="M830.688,348.058h0.983c0,0.306,0.086,0.559,0.256,0.758     c0.171,0.198,0.385,0.298,0.643,0.298c0.243,0,0.442-0.075,0.599-0.224c0.157-0.15,0.235-0.341,0.235-0.574     c0-0.203-0.055-0.376-0.166-0.517c-0.111-0.14-0.289-0.26-0.535-0.359c-0.084-0.035-0.204-0.08-0.359-0.137     c-0.413-0.155-0.675-0.278-0.788-0.369c-0.208-0.167-0.361-0.354-0.459-0.564c-0.098-0.21-0.148-0.452-0.148-0.726     c0-0.473,0.165-0.874,0.494-1.206c0.33-0.331,0.732-0.496,1.208-0.496c0.496,0,0.891,0.145,1.183,0.437     c0.292,0.29,0.453,0.698,0.482,1.224h-1.006c-0.017-0.215-0.088-0.384-0.211-0.504c-0.123-0.119-0.289-0.18-0.496-0.18     c-0.186,0-0.343,0.065-0.467,0.193c-0.125,0.129-0.187,0.29-0.187,0.479c0,0.324,0.282,0.59,0.844,0.799     c0.158,0.06,0.283,0.107,0.375,0.142c0.444,0.18,0.759,0.404,0.949,0.671c0.188,0.268,0.282,0.625,0.282,1.071     c0,0.522-0.176,0.955-0.528,1.3c-0.353,0.345-0.797,0.518-1.333,0.518c-0.539,0-0.975-0.181-1.306-0.544     C830.901,349.186,830.72,348.689,830.688,348.058"></path>
      <polygon style="clip-path:url(#7_th_2_SVGID_16_);fill:#8E2424;" points="837.277,349.936 837.277,345.074 836.455,345.074      836.455,344.125 837.277,344.125 837.277,342.242 838.317,342.242 838.317,344.125 839.139,344.125 839.139,345.074      838.317,345.074 838.317,349.936    "></polygon>
      <path style="clip-path:url(#7_th_2_SVGID_16_);fill:#8E2424;" d="M842.553,343.442h-1.033v-1.2h1.033V343.442z M841.52,344.125h1.033     v5.812h-1.033V344.125z"></path>
      <path style="clip-path:url(#7_th_2_SVGID_16_);fill:#8E2424;" d="M845.509,350.403h1.116c0.163,0.271,0.375,0.477,0.637,0.62     c0.263,0.142,0.563,0.214,0.902,0.214c0.589,0,1.063-0.177,1.422-0.532c0.36-0.354,0.54-0.823,0.54-1.407v-0.074     c-0.269,0.278-0.567,0.489-0.896,0.631c-0.33,0.144-0.682,0.215-1.055,0.215c-0.874,0-1.599-0.291-2.177-0.875     c-0.578-0.583-0.867-1.313-0.867-2.191c0-0.408,0.072-0.796,0.217-1.163c0.144-0.366,0.35-0.688,0.618-0.967     c0.293-0.306,0.611-0.532,0.959-0.679c0.348-0.147,0.743-0.219,1.187-0.219c0.394,0,0.76,0.071,1.096,0.211     c0.337,0.142,0.646,0.355,0.928,0.641v-0.702h1.045v4.849c0,1.011-0.262,1.803-0.788,2.375c-0.525,0.573-1.247,0.859-2.167,0.859     c-0.667,0-1.236-0.157-1.708-0.472C846.046,351.421,845.709,350.977,845.509,350.403 M846.214,346.994     c0,0.588,0.194,1.081,0.584,1.479c0.389,0.398,0.866,0.597,1.43,0.597c0.514,0,0.968-0.2,1.361-0.599     c0.392-0.4,0.59-0.868,0.59-1.403c0-0.57-0.196-1.059-0.584-1.466c-0.39-0.406-0.853-0.61-1.388-0.61     c-0.55,0-1.02,0.194-1.409,0.581C846.408,345.961,846.214,346.435,846.214,346.994"></path>
      <path style="clip-path:url(#7_th_2_SVGID_16_);fill:#8E2424;" d="M858.718,349.937v-0.713c-0.268,0.278-0.567,0.489-0.897,0.631     c-0.329,0.144-0.681,0.215-1.054,0.215c-0.874,0-1.599-0.291-2.178-0.875c-0.577-0.583-0.866-1.313-0.866-2.191     c0-0.408,0.073-0.796,0.217-1.163c0.144-0.366,0.35-0.688,0.618-0.967c0.292-0.306,0.612-0.532,0.96-0.679     c0.346-0.147,0.741-0.219,1.185-0.219c0.399,0,0.765,0.071,1.1,0.211c0.334,0.142,0.639,0.355,0.915,0.641v-0.702h1.055v5.811     H858.718z M854.806,346.994c0,0.588,0.195,1.081,0.584,1.479c0.389,0.398,0.866,0.597,1.43,0.597c0.514,0,0.968-0.2,1.361-0.599     c0.393-0.4,0.589-0.868,0.589-1.403c0-0.57-0.194-1.059-0.584-1.466c-0.39-0.406-0.852-0.61-1.388-0.61     c-0.548,0-1.019,0.194-1.408,0.581C855.001,345.961,854.806,346.435,854.806,346.994"></path>
      <polygon style="clip-path:url(#7_th_2_SVGID_16_);fill:#8E2424;" points="862.965,349.936 862.965,345.074 862.143,345.074      862.143,344.125 862.965,344.125 862.965,342.242 864.004,342.242 864.004,344.125 864.825,344.125 864.825,345.074      864.004,345.074 864.004,349.936    "></polygon>
      <path style="clip-path:url(#7_th_2_SVGID_16_);fill:#8E2424;" d="M868.241,343.442h-1.034v-1.2h1.034V343.442z M867.207,344.125h1.034     v5.812h-1.034V344.125z"></path>
      <path style="clip-path:url(#7_th_2_SVGID_16_);fill:#8E2424;" d="M870.774,347.036c0-0.412,0.069-0.797,0.208-1.154     c0.139-0.358,0.344-0.678,0.615-0.963c0.292-0.314,0.622-0.556,0.989-0.724c0.365-0.168,0.746-0.253,1.14-0.253     c0.423,0,0.814,0.076,1.175,0.227c0.361,0.151,0.688,0.375,0.98,0.67c0.285,0.292,0.504,0.621,0.657,0.987     c0.154,0.366,0.23,0.745,0.23,1.135c0,0.398-0.072,0.786-0.214,1.162c-0.142,0.376-0.342,0.706-0.599,0.987     c-0.296,0.324-0.628,0.569-0.996,0.737c-0.368,0.168-0.76,0.25-1.175,0.25c-0.426,0-0.818-0.076-1.178-0.23     c-0.359-0.152-0.681-0.379-0.966-0.677c-0.271-0.285-0.484-0.618-0.636-0.996C870.85,347.816,870.774,347.43,870.774,347.036      M871.857,347.025c0,0.581,0.184,1.065,0.552,1.452c0.367,0.387,0.826,0.581,1.375,0.581c0.538,0,0.989-0.195,1.354-0.584     c0.365-0.388,0.547-0.876,0.547-1.46c0-0.588-0.182-1.074-0.547-1.458c-0.365-0.384-0.819-0.575-1.365-0.575     c-0.542,0-0.997,0.194-1.364,0.584C872.041,345.953,871.857,346.44,871.857,347.025"></path>
      <path style="clip-path:url(#7_th_2_SVGID_16_);fill:#8E2424;" d="M880.336,349.936h-1.044v-5.811h1.002v0.662     c0.219-0.261,0.459-0.452,0.722-0.574c0.263-0.121,0.562-0.182,0.901-0.182c0.762,0,1.346,0.223,1.753,0.671     c0.407,0.447,0.611,1.088,0.611,1.924v3.31h-1.051v-3.084c0-0.615-0.114-1.072-0.343-1.369c-0.23-0.298-0.584-0.447-1.064-0.447     c-0.522,0-0.901,0.175-1.135,0.526c-0.235,0.35-0.352,0.927-0.352,1.734V349.936z"></path>
      <path style="clip-path:url(#7_th_2_SVGID_16_);fill:#8E2424;" d="M891.509,347.035c0-0.412,0.07-0.796,0.208-1.154     c0.14-0.357,0.345-0.677,0.616-0.963c0.292-0.313,0.621-0.555,0.987-0.723c0.366-0.169,0.746-0.253,1.141-0.253     c0.422,0,0.815,0.075,1.175,0.227c0.361,0.151,0.688,0.375,0.979,0.67c0.286,0.292,0.506,0.621,0.659,0.987     c0.153,0.366,0.23,0.745,0.23,1.135c0,0.398-0.072,0.785-0.214,1.162c-0.143,0.376-0.343,0.705-0.6,0.987     c-0.296,0.324-0.628,0.569-0.996,0.736c-0.368,0.168-0.759,0.251-1.175,0.251c-0.426,0-0.819-0.076-1.178-0.23     c-0.359-0.152-0.681-0.379-0.966-0.678c-0.271-0.285-0.484-0.617-0.636-0.996C891.585,347.816,891.509,347.43,891.509,347.035      M892.592,347.025c0,0.58,0.184,1.065,0.552,1.452c0.368,0.387,0.826,0.581,1.375,0.581c0.539,0,0.991-0.195,1.355-0.584     c0.363-0.389,0.547-0.876,0.547-1.46c0-0.588-0.184-1.074-0.547-1.458c-0.364-0.384-0.82-0.576-1.366-0.576     c-0.542,0-0.996,0.195-1.364,0.585C892.776,345.953,892.592,346.44,892.592,347.025"></path>
      <path style="clip-path:url(#7_th_2_SVGID_16_);fill:#8E2424;" d="M901.361,349.936h-1.039v-4.9h-0.695v-0.911h0.663v-0.174     c0-0.596,0.167-1.044,0.497-1.346c0.332-0.301,0.826-0.452,1.486-0.452v0.966h-0.091c-0.31,0-0.532,0.072-0.667,0.213     c-0.134,0.14-0.201,0.377-0.201,0.708v0.085h0.959v0.911h-0.912V349.936z"></path>
      <polygon style="clip-path:url(#7_th_2_SVGID_16_);fill:#8E2424;" points="705.859,362.921 701.864,362.921 701.864,355.227      705.859,355.227 705.859,356.254 702.981,356.254 702.981,358.549 705.859,358.549 705.859,359.554 702.981,359.554      702.981,361.86 705.859,361.86    "></polygon>
      <path style="clip-path:url(#7_th_2_SVGID_16_);fill:#8E2424;" d="M710.122,362.921h-1.039v-4.9h-0.694v-0.911h0.662v-0.174     c0-0.596,0.166-1.045,0.497-1.346c0.331-0.301,0.826-0.452,1.485-0.452v0.966h-0.09c-0.311,0-0.533,0.071-0.667,0.212     c-0.135,0.141-0.202,0.378-0.202,0.709v0.085h0.959v0.911h-0.911V362.921z"></path>
      <path style="clip-path:url(#7_th_2_SVGID_16_);fill:#8E2424;" d="M714.751,362.921h-1.039v-4.9h-0.694v-0.911h0.664v-0.174     c0-0.596,0.164-1.045,0.495-1.346c0.333-0.301,0.827-0.452,1.485-0.452v0.966h-0.089c-0.311,0-0.533,0.071-0.668,0.212     c-0.134,0.141-0.201,0.378-0.201,0.709v0.085h0.958v0.911h-0.911V362.921z"></path>
      <path style="clip-path:url(#7_th_2_SVGID_16_);fill:#8E2424;" d="M719.081,356.426h-1.032v-1.2h1.032V356.426z M718.048,357.11h1.032     v5.811h-1.032V357.11z"></path>
      <path style="clip-path:url(#7_th_2_SVGID_16_);fill:#8E2424;" d="M727.47,360.938c-0.244,0.702-0.603,1.234-1.083,1.597     c-0.479,0.361-1.062,0.542-1.749,0.542c-0.434,0-0.825-0.075-1.178-0.225c-0.353-0.149-0.671-0.374-0.956-0.674     c-0.272-0.286-0.484-0.618-0.637-0.996c-0.153-0.379-0.23-0.767-0.23-1.161c0-0.406,0.07-0.786,0.209-1.14     s0.344-0.678,0.615-0.97c0.3-0.321,0.636-0.564,1.009-0.73c0.374-0.166,0.774-0.248,1.2-0.248c0.665,0,1.243,0.183,1.733,0.553     c0.49,0.368,0.845,0.885,1.067,1.552h-1.144c-0.184-0.357-0.42-0.624-0.708-0.801c-0.29-0.177-0.635-0.265-1.036-0.265     c-0.519,0-0.958,0.195-1.32,0.587c-0.362,0.392-0.541,0.876-0.541,1.451c0,0.583,0.182,1.069,0.549,1.457     c0.366,0.388,0.823,0.582,1.369,0.582c0.367,0,0.698-0.096,0.994-0.29c0.296-0.192,0.527-0.467,0.693-0.821H727.47z"></path>
      <path style="clip-path:url(#7_th_2_SVGID_16_);fill:#8E2424;" d="M734.833,362.921v-0.713c-0.268,0.279-0.567,0.49-0.896,0.632     c-0.329,0.143-0.681,0.215-1.053,0.215c-0.874,0-1.601-0.292-2.179-0.875c-0.577-0.583-0.866-1.313-0.866-2.191     c0-0.409,0.072-0.796,0.217-1.163c0.144-0.366,0.35-0.688,0.618-0.967c0.292-0.306,0.612-0.532,0.959-0.68     c0.347-0.146,0.743-0.219,1.186-0.219c0.399,0,0.765,0.071,1.1,0.212c0.335,0.141,0.639,0.355,0.914,0.641v-0.703h1.056v5.811     H734.833z M730.922,359.98c0,0.587,0.195,1.08,0.584,1.478c0.389,0.398,0.866,0.596,1.429,0.596c0.515,0,0.969-0.199,1.361-0.599     c0.394-0.4,0.59-0.867,0.59-1.403c0-0.569-0.194-1.058-0.584-1.464c-0.39-0.408-0.852-0.611-1.388-0.611     c-0.549,0-1.019,0.194-1.408,0.581C731.117,358.946,730.922,359.419,730.922,359.98"></path>
      <path style="clip-path:url(#7_th_2_SVGID_16_);fill:#8E2424;" d="M744.242,360.938c-0.244,0.702-0.605,1.234-1.084,1.597     c-0.478,0.361-1.061,0.542-1.749,0.542c-0.433,0-0.824-0.075-1.177-0.225c-0.354-0.149-0.672-0.374-0.958-0.674     c-0.27-0.286-0.483-0.618-0.636-0.996c-0.153-0.379-0.229-0.767-0.229-1.161c0-0.406,0.068-0.786,0.208-1.14     c0.139-0.354,0.344-0.678,0.616-0.97c0.299-0.321,0.636-0.564,1.009-0.73c0.373-0.166,0.773-0.248,1.199-0.248     c0.666,0,1.243,0.183,1.734,0.553c0.489,0.368,0.846,0.885,1.067,1.552h-1.145c-0.184-0.357-0.42-0.624-0.708-0.801     c-0.29-0.177-0.634-0.265-1.037-0.265c-0.518,0-0.957,0.195-1.318,0.587c-0.362,0.392-0.543,0.876-0.543,1.451     c0,0.583,0.184,1.069,0.551,1.457c0.366,0.388,0.822,0.582,1.369,0.582c0.367,0,0.698-0.096,0.993-0.29     c0.297-0.192,0.527-0.467,0.693-0.821H744.242z"></path>
      <polygon style="clip-path:url(#7_th_2_SVGID_16_);fill:#8E2424;" points="746.321,357.11 747.447,357.11 749.017,361.437      750.718,357.11 751.843,357.11 748.715,364.804 747.61,364.804 748.42,362.76    "></polygon>
      <path style="clip-path:url(#7_th_2_SVGID_16_);fill:#8E2424;" d="M763.49,362.921v-0.713c-0.268,0.279-0.566,0.49-0.896,0.632     c-0.33,0.143-0.681,0.215-1.055,0.215c-0.873,0-1.599-0.292-2.177-0.875c-0.577-0.583-0.866-1.313-0.866-2.191     c0-0.409,0.072-0.796,0.216-1.163c0.145-0.366,0.35-0.688,0.618-0.967c0.293-0.306,0.613-0.532,0.96-0.68     c0.347-0.146,0.742-0.219,1.186-0.219c0.398,0,0.765,0.071,1.099,0.212c0.336,0.141,0.64,0.355,0.915,0.641v-0.703h1.055v5.811     H763.49z M759.579,359.98c0,0.587,0.195,1.08,0.583,1.478c0.391,0.398,0.867,0.596,1.431,0.596c0.514,0,0.967-0.199,1.361-0.599     c0.392-0.4,0.589-0.867,0.589-1.403c0-0.569-0.196-1.058-0.585-1.464c-0.388-0.408-0.851-0.611-1.387-0.611     c-0.55,0-1.018,0.194-1.409,0.581C759.774,358.946,759.579,359.419,759.579,359.98"></path>
      <path style="clip-path:url(#7_th_2_SVGID_16_);fill:#8E2424;" d="M768.426,362.921h-1.045v-5.811h1.002v0.662     c0.22-0.26,0.46-0.452,0.723-0.574c0.262-0.121,0.562-0.183,0.901-0.183c0.762,0,1.346,0.224,1.752,0.672     c0.408,0.448,0.612,1.088,0.612,1.924v3.31h-1.051v-3.083c0-0.617-0.114-1.073-0.344-1.37c-0.229-0.298-0.583-0.447-1.063-0.447     c-0.523,0-0.9,0.175-1.135,0.526c-0.235,0.35-0.352,0.927-0.352,1.734V362.921z"></path>
      <path style="clip-path:url(#7_th_2_SVGID_16_);fill:#8E2424;" d="M779.919,362.921v-0.713c-0.268,0.279-0.567,0.49-0.896,0.632     c-0.33,0.143-0.682,0.215-1.055,0.215c-0.874,0-1.599-0.292-2.178-0.875c-0.577-0.583-0.865-1.313-0.865-2.191     c0-0.409,0.071-0.796,0.215-1.163c0.144-0.366,0.351-0.688,0.619-0.967c0.293-0.306,0.612-0.532,0.959-0.68     c0.347-0.146,0.744-0.219,1.187-0.219c0.395,0,0.76,0.071,1.097,0.212c0.336,0.141,0.645,0.355,0.928,0.641v-2.586h1.043v7.694     H779.919z M776.007,359.98c0,0.587,0.195,1.08,0.584,1.478c0.39,0.398,0.866,0.596,1.43,0.596c0.515,0,0.967-0.199,1.362-0.599     c0.392-0.4,0.589-0.867,0.589-1.403c0-0.569-0.195-1.058-0.585-1.464c-0.389-0.408-0.851-0.611-1.387-0.611     c-0.55,0-1.019,0.194-1.409,0.581C776.202,358.946,776.007,359.419,776.007,359.98"></path>
      <path style="clip-path:url(#7_th_2_SVGID_16_);fill:#8E2424;" d="M788.18,360.704h1.001c0.016,0.398,0.134,0.716,0.352,0.954     c0.219,0.238,0.503,0.357,0.851,0.357c0.384,0,0.691-0.119,0.922-0.357c0.231-0.239,0.346-0.556,0.346-0.954     c0-0.35-0.084-0.619-0.253-0.81c-0.17-0.191-0.524-0.368-1.063-0.534c-0.028-0.007-0.076-0.02-0.143-0.038     c-0.644-0.172-1.111-0.455-1.4-0.849c-0.131-0.173-0.228-0.357-0.293-0.552c-0.065-0.196-0.098-0.404-0.098-0.626     c0-0.658,0.196-1.191,0.587-1.598c0.391-0.406,0.904-0.61,1.539-0.61c0.588,0,1.063,0.183,1.424,0.547     c0.361,0.365,0.561,0.864,0.601,1.498h-1.04c-0.017-0.306-0.121-0.553-0.31-0.741c-0.189-0.187-0.426-0.281-0.712-0.281     c-0.308,0-0.558,0.105-0.749,0.314c-0.193,0.208-0.291,0.478-0.291,0.808c0,0.116,0.018,0.225,0.055,0.327     c0.035,0.102,0.088,0.196,0.163,0.284c0.151,0.179,0.476,0.334,0.973,0.463c0.229,0.06,0.405,0.111,0.528,0.154     c0.508,0.19,0.893,0.467,1.155,0.831c0.263,0.363,0.393,0.797,0.393,1.305c0,0.744-0.21,1.343-0.633,1.798     s-0.984,0.682-1.68,0.682c-0.656,0-1.188-0.217-1.598-0.652C788.396,361.989,788.187,361.416,788.18,360.704"></path>
      <path style="clip-path:url(#7_th_2_SVGID_16_);fill:#8E2424;" d="M799.994,362.921v-0.713c-0.269,0.279-0.567,0.49-0.897,0.632     c-0.329,0.143-0.681,0.215-1.054,0.215c-0.874,0-1.6-0.292-2.177-0.875c-0.579-0.583-0.867-1.313-0.867-2.191     c0-0.409,0.073-0.796,0.217-1.163c0.144-0.366,0.35-0.688,0.618-0.967c0.293-0.306,0.612-0.532,0.96-0.68     c0.346-0.146,0.742-0.219,1.187-0.219c0.397,0,0.763,0.071,1.098,0.212s0.639,0.355,0.915,0.641v-0.703h1.054v5.811H799.994z      M796.083,359.98c0,0.587,0.194,1.08,0.583,1.478c0.389,0.398,0.867,0.596,1.43,0.596c0.515,0,0.968-0.199,1.361-0.599     s0.589-0.867,0.589-1.403c0-0.569-0.194-1.058-0.584-1.464c-0.388-0.408-0.851-0.611-1.387-0.611c-0.55,0-1.02,0.194-1.409,0.581     C796.277,358.946,796.083,359.419,796.083,359.98"></path>
      <path style="clip-path:url(#7_th_2_SVGID_16_);fill:#8E2424;" d="M805.218,362.921h-1.039v-4.9h-0.694v-0.911h0.663v-0.174     c0-0.596,0.165-1.045,0.496-1.346c0.331-0.301,0.826-0.452,1.486-0.452v0.966h-0.091c-0.31,0-0.532,0.071-0.667,0.212     c-0.134,0.141-0.201,0.378-0.201,0.709v0.085h0.959v0.911h-0.912V362.921z"></path>
      <path style="clip-path:url(#7_th_2_SVGID_16_);fill:#8E2424;" d="M809.288,360.399c0.088,0.488,0.307,0.883,0.658,1.185     c0.351,0.303,0.768,0.454,1.251,0.454c0.345,0,0.66-0.084,0.943-0.25c0.284-0.166,0.51-0.401,0.68-0.705h1.178     c-0.268,0.644-0.642,1.139-1.124,1.481c-0.48,0.342-1.039,0.513-1.677,0.513c-0.429,0-0.822-0.075-1.177-0.227     c-0.357-0.152-0.678-0.38-0.967-0.683c-0.271-0.285-0.483-0.618-0.637-0.996c-0.153-0.379-0.23-0.766-0.23-1.161     c0-0.409,0.07-0.792,0.209-1.148c0.139-0.355,0.344-0.68,0.615-0.972c0.289-0.318,0.615-0.557,0.978-0.717     c0.361-0.16,0.758-0.24,1.187-0.24c0.511,0,0.986,0.118,1.424,0.356c0.439,0.238,0.8,0.57,1.086,0.997     c0.169,0.264,0.294,0.553,0.375,0.869c0.08,0.315,0.121,0.675,0.121,1.081v0.163H809.288z M813.037,359.46     c-0.131-0.479-0.357-0.849-0.676-1.112c-0.322-0.262-0.706-0.393-1.154-0.393c-0.458,0-0.855,0.135-1.192,0.404     c-0.337,0.269-0.568,0.637-0.695,1.101H813.037z"></path>
      <polygon style="clip-path:url(#7_th_2_SVGID_16_);fill:#8E2424;" points="817.071,362.921 817.071,358.06 816.249,358.06      816.249,357.11 817.071,357.11 817.071,355.227 818.11,355.227 818.11,357.11 818.932,357.11 818.932,358.06 818.11,358.06      818.11,362.921    "></polygon>
      <polygon style="clip-path:url(#7_th_2_SVGID_16_);fill:#8E2424;" points="820.73,357.11 821.856,357.11 823.425,361.437 825.127,357.11      826.252,357.11 823.124,364.804 822.02,364.804 822.827,362.76    "></polygon>
      <path style="clip-path:url(#7_th_2_SVGID_16_);fill:#8E2424;" d="M834.23,356.426h-1.033v-1.2h1.033V356.426z M833.198,357.11h1.033     v5.811h-1.033V357.11z"></path>
      <path style="clip-path:url(#7_th_2_SVGID_16_);fill:#8E2424;" d="M838.147,362.921h-1.045v-5.811h1.003v0.662     c0.218-0.26,0.459-0.452,0.722-0.574c0.262-0.121,0.562-0.183,0.901-0.183c0.761,0,1.345,0.224,1.753,0.672     c0.407,0.448,0.61,1.088,0.61,1.924v3.31h-1.049v-3.083c0-0.617-0.116-1.073-0.344-1.37c-0.23-0.298-0.585-0.447-1.065-0.447     c-0.521,0-0.9,0.175-1.134,0.526c-0.235,0.35-0.352,0.927-0.352,1.734V362.921z"></path>
      <polygon style="clip-path:url(#7_th_2_SVGID_16_);fill:#8E2424;" points="848.881,355.227 850.015,355.227 851.685,361.156      853.187,355.227 854.023,355.227 855.521,361.156 857.185,355.227 858.32,355.227 855.998,362.921 854.986,362.921      853.6,357.177 852.203,362.921 851.209,362.921    "></polygon>
      <path style="clip-path:url(#7_th_2_SVGID_16_);fill:#8E2424;" d="M861.175,360.399c0.087,0.488,0.307,0.883,0.658,1.185     c0.351,0.303,0.769,0.454,1.25,0.454c0.345,0,0.66-0.084,0.945-0.25c0.283-0.166,0.509-0.401,0.678-0.705h1.178     c-0.268,0.644-0.642,1.139-1.123,1.481c-0.48,0.342-1.039,0.513-1.677,0.513c-0.43,0-0.822-0.075-1.177-0.227     c-0.357-0.152-0.679-0.38-0.967-0.683c-0.272-0.285-0.483-0.618-0.637-0.996c-0.153-0.379-0.23-0.766-0.23-1.161     c0-0.409,0.069-0.792,0.209-1.148c0.139-0.355,0.344-0.68,0.615-0.972c0.289-0.318,0.614-0.557,0.977-0.717     c0.363-0.16,0.759-0.24,1.189-0.24c0.51,0,0.984,0.118,1.423,0.356c0.439,0.238,0.8,0.57,1.085,0.997     c0.168,0.264,0.294,0.553,0.374,0.869c0.083,0.315,0.123,0.675,0.123,1.081v0.163H861.175z M864.924,359.46     c-0.13-0.479-0.356-0.849-0.676-1.112c-0.321-0.262-0.706-0.393-1.154-0.393c-0.458,0-0.855,0.135-1.192,0.404     c-0.337,0.269-0.568,0.637-0.695,1.101H864.924z"></path>
      <polygon style="clip-path:url(#7_th_2_SVGID_16_);fill:#8E2424;" points="868.957,362.921 868.957,358.06 868.135,358.06      868.135,357.11 868.957,357.11 868.957,355.227 869.996,355.227 869.996,357.11 870.818,357.11 870.818,358.06 869.996,358.06      869.996,362.921    "></polygon>
      <path style="clip-path:url(#7_th_2_SVGID_16_);fill:#8E2424;" d="M879.013,360.682l-0.865,2.239h-1.179l3.006-7.694h1.083l3.006,7.694     h-1.221l-0.844-2.239H879.013z M881.597,359.599l-1.083-2.924l-1.104,2.924H881.597z"></path>
      <polygon style="clip-path:url(#7_th_2_SVGID_16_);fill:#8E2424;" points="887.184,362.921 886.112,362.921 886.112,355.227      887.765,355.227 889.995,361.177 892.225,355.226 893.856,355.226 893.856,362.921 892.812,362.921 892.884,356.241      890.386,362.921 889.594,362.921 887.107,356.241    "></polygon>
      <path style="clip-path:url(#7_th_2_SVGID_16_);fill:#8E2424;" d="M898.949,362.921h-2.161v-7.694h2.477c1.155,0,2.088,0.357,2.798,1.073     c0.71,0.715,1.064,1.648,1.064,2.8c0,0.656-0.133,1.253-0.398,1.792c-0.267,0.538-0.65,0.988-1.15,1.347     c-0.338,0.243-0.699,0.418-1.082,0.524C900.113,362.868,899.597,362.921,898.949,362.921 M897.872,361.893h1.351     c0.855,0,1.531-0.249,2.029-0.748c0.498-0.499,0.747-1.177,0.747-2.033c0-0.888-0.264-1.583-0.791-2.085     c-0.528-0.5-1.259-0.75-2.191-0.75h-1.145V361.893z"></path>
      <polygon style="clip-path:url(#7_th_2_SVGID_16_);fill:#8E2424;" points="712.883,310.193 708.805,310.193 697.264,279.927      703.144,279.927 711.104,302.021 719.27,279.927 725.026,279.927    "></polygon>
      <rect x="742.457" y="279.928" style="clip-path:url(#7_th_2_SVGID_16_);fill:#8E2424;" width="5.377" height="30.265"></rect>
      <polygon style="clip-path:url(#7_th_2_SVGID_16_);fill:#8E2424;" points="833.841,289.695 827.634,310.193 824.575,310.193      814.101,279.928 819.901,279.928 826.118,299.93 832.269,279.928 835.605,279.928 841.699,299.93 847.939,279.928      853.681,279.928 843.16,310.193 840.101,310.193    "></polygon>
      <path style="clip-path:url(#7_th_2_SVGID_16_);fill:#8E2424;" d="M904.451,310.243h-19.942v-5.644l10.973-10.266     c1.038-0.969,1.822-1.924,2.348-2.866c0.527-0.941,0.79-1.842,0.79-2.7c0-1.134-0.363-2.073-1.091-2.813     c-0.728-0.741-1.667-1.111-2.817-1.111c-1.219,0-2.161,0.394-2.826,1.183c-0.665,0.789-0.999,1.895-0.999,3.32v0.519h-5.955     v-0.083c0-3.114,0.907-5.615,2.721-7.505c1.812-1.889,4.209-2.834,7.183-2.834c2.756,0,5.067,0.907,6.938,2.721     c1.868,1.814,2.802,4.029,2.802,6.646c0,1.44-0.366,2.845-1.1,4.216s-1.868,2.742-3.402,4.112l-8.459,7.661h12.836V310.243z"></path>
    </g>
    <g style="clip-path:url(#7_th_2_SVGID_2_);">
      <text transform="matrix(1 0 0 1 1190.4922 198.506)">
        <tspan x="0" y="0" style="fill:#003B5C; font-family:'Montserrat-Medium'; font-size:20.6239px;">P</tspan>
        <tspan x="14.519" y="0" style="fill:#003B5C; font-family:'Montserrat-Medium'; font-size:20.6239px;">r</tspan>
        <tspan x="22.748" y="0" style="fill:#003B5C; font-family:'Montserrat-Medium'; font-size:20.6239px;">opo</tspan>
        <tspan x="63.005" y="0" style="fill:#003B5C; font-family:'Montserrat-Medium'; font-size:20.6239px;">r</tspan>
        <tspan x="71.749" y="0" style="fill:#003B5C; font-family:'Montserrat-Medium'; font-size:20.6239px;">tion of</tspan>
        <tspan x="144.654" y="0" style="fill:#003B5C; font-family:'Montserrat-Medium'; font-size:20.6239px;">p</tspan>
        <tspan x="158.637" y="0" style="fill:#003B5C; font-family:'Montserrat-Medium'; font-size:20.6239px;">atients</tspan>
        <tspan x="236.347" y="0" style="fill:#003B5C; font-family:'Montserrat-Medium'; font-size:20.6239px;">a</tspan>
        <tspan x="248.721" y="0" style="fill:#003B5C; font-family:'Montserrat-Medium'; font-size:20.6239px;">c</tspan>
        <tspan x="260.353" y="0" style="fill:#003B5C; font-family:'Montserrat-Medium'; font-size:20.6239px;">hi</tspan>
        <tspan x="280.151" y="0" style="fill:#003B5C; font-family:'Montserrat-Medium'; font-size:20.6239px;">e</tspan>
        <tspan x="292.566" y="0" style="fill:#003B5C; font-family:'Montserrat-Medium'; font-size:20.6239px;">vi</tspan>
        <tspan x="309.85" y="0" style="fill:#003B5C; font-family:'Montserrat-Medium'; font-size:20.6239px;">n</tspan>
        <tspan x="323.956" y="0" style="fill:#003B5C; font-family:'Montserrat-Medium'; font-size:20.6239px;">g</tspan>
      </text>
    </g>
    <g style="clip-path:url(#7_th_2_SVGID_2_);">
      <text transform="matrix(1 0 0 1 1532.1738 198.506)" style="fill:#003B5C; font-family:'Montserrat-Medium'; font-size:20.6239px;"></text>
    </g>
    <g style="clip-path:url(#7_th_2_SVGID_2_);">
      <text transform="matrix(1 0 0 1 1190.4922 223.255)">
        <tspan x="0" y="0" style="fill:#003B5C; font-family:'Montserrat-Bold'; font-size:20.6239px;">12-week </tspan>
        <!-- <tspan x="8.085" y="0" style="fill:#003B5C; font-family:'Montserrat-Bold'; font-size:20.6239px;">2</tspan>
        <tspan x="20.17" y="0" style="fill:#003B5C; font-family:'Montserrat-Bold'; font-size:20.6239px;">-</tspan>
        <tspan x="27.821" y="0" style="fill:#003B5C; font-family:'Montserrat-Bold'; font-size:20.6239px;">w</tspan>
        <tspan x="46.857" y="0" style="fill:#003B5C; font-family:'Montserrat-Bold'; font-size:20.6239px;">eek </tspan> -->
      </text>
    </g>
    <g style="clip-path:url(#7_th_2_SVGID_2_);">
      <text transform="matrix(1 0 0 1 1276.9473 223.255)">
        <tspan x="7" y="0" style="fill:#003B5C; font-family:'Montserrat-Medium'; font-size:20.6239px;">dosing at 96 weeks</tspan>
      </text>
    </g>
    <rect x="1152.436" y="261.435" style="clip-path:url(#7_th_2_SVGID_2_);fill:#FFD100;" width="26.25" height="25.533"></rect>
    <g style="clip-path:url(#7_th_2_SVGID_2_);">
      <defs>
        <rect id="7_th_2_SVGID_17_" x="1152.436" y="261.435" width="26.25" height="25.533"></rect>
      </defs>
      <clipPath id="7_th_2_SVGID_18_">
        <use xlink:href="#7_th_2_SVGID_17_" style="overflow:visible;"></use>
      </clipPath>
      <g style="opacity:0.7;clip-path:url(#7_th_2_SVGID_18_);">
        <g>
          <defs>
            <rect id="7_th_2_SVGID_19_" x="1143.19" y="253.468" width="22.2" height="10.573"></rect>
          </defs>
          <clipPath id="7_th_2_SVGID_20_">
            <use xlink:href="#7_th_2_SVGID_19_" style="overflow:visible;"></use>
          </clipPath>
          <polygon style="clip-path:url(#7_th_2_SVGID_20_);fill:#FFFFFF;" points="1156.389,260.468 1152.822,260.468 1152.186,260.857        1152.186,263.041      "></polygon>
        </g>
      </g>
      <g style="opacity:0.7;clip-path:url(#7_th_2_SVGID_18_);">
        <g>
          <defs>
            <rect id="7_th_2_SVGID_21_" x="1143.19" y="253.468" width="30.13" height="15.427"></rect>
          </defs>
          <clipPath id="7_th_2_SVGID_22_">
            <use xlink:href="#7_th_2_SVGID_21_" style="overflow:visible;"></use>
          </clipPath>
          <polygon style="clip-path:url(#7_th_2_SVGID_22_);fill:#FFFFFF;" points="1164.316,260.468 1160.749,260.468 1152.186,265.711        1152.186,267.895      "></polygon>
        </g>
      </g>
      <g style="opacity:0.7;clip-path:url(#7_th_2_SVGID_18_);">
        <g>
          <defs>
            <rect id="7_th_2_SVGID_23_" x="1143.19" y="253.468" width="38.06" height="20.283"></rect>
          </defs>
          <clipPath id="7_th_2_SVGID_24_">
            <use xlink:href="#7_th_2_SVGID_23_" style="overflow:visible;"></use>
          </clipPath>
          <polygon style="clip-path:url(#7_th_2_SVGID_24_);fill:#FFFFFF;" points="1172.247,260.468 1168.68,260.468 1152.186,270.567        1152.186,272.751      "></polygon>
        </g>
      </g>
      <g style="opacity:0.7;clip-path:url(#7_th_2_SVGID_18_);">
        <g>
          <defs>
            <rect id="7_th_2_SVGID_25_" x="1143.19" y="253.468" width="44.5" height="25.137"></rect>
          </defs>
          <clipPath id="7_th_2_SVGID_26_">
            <use xlink:href="#7_th_2_SVGID_25_" style="overflow:visible;"></use>
          </clipPath>
          <polygon style="clip-path:url(#7_th_2_SVGID_26_);fill:#FFFFFF;" points="1178.686,260.468 1176.607,260.468 1152.186,275.421        1152.186,277.605 1178.686,261.38      "></polygon>
        </g>
      </g>
      <g style="opacity:0.7;clip-path:url(#7_th_2_SVGID_18_);">
        <g>
          <defs>
            <rect id="7_th_2_SVGID_27_" x="1143.19" y="257.051" width="44.5" height="26.41"></rect>
          </defs>
          <clipPath id="7_th_2_SVGID_28_">
            <use xlink:href="#7_th_2_SVGID_27_" style="overflow:visible;"></use>
          </clipPath>
          <polygon style="clip-path:url(#7_th_2_SVGID_28_);fill:#FFFFFF;" points="1178.686,264.051 1152.186,280.276 1152.186,282.461        1178.686,266.235      "></polygon>
        </g>
      </g>
      <g style="opacity:0.7;clip-path:url(#7_th_2_SVGID_18_);">
        <g>
          <defs>
            <rect id="7_th_2_SVGID_29_" x="1143.19" y="261.905" width="44.5" height="26.062"></rect>
          </defs>
          <clipPath id="7_th_2_SVGID_30_">
            <use xlink:href="#7_th_2_SVGID_29_" style="overflow:visible;"></use>
          </clipPath>
          <polygon style="clip-path:url(#7_th_2_SVGID_30_);fill:#FFFFFF;" points="1178.686,268.905 1152.186,285.13 1152.186,286.967        1152.754,286.967 1178.686,271.089      "></polygon>
        </g>
      </g>
    </g>
    <g style="clip-path:url(#7_th_2_SVGID_2_);">
      <defs>
        <rect id="7_th_2_SVGID_31_" width="1592.574" height="497.673"></rect>
      </defs>
      <clipPath id="7_th_2_SVGID_32_">
        <use xlink:href="#7_th_2_SVGID_31_" style="overflow:visible;"></use>
      </clipPath>
      <g style="opacity:0.7;clip-path:url(#7_th_2_SVGID_32_);">
        <g>
          <defs>
            <rect id="7_th_2_SVGID_33_" x="1148.12" y="266.761" width="39.57" height="21.206"></rect>
          </defs>
          <clipPath id="7_th_2_SVGID_34_">
            <use xlink:href="#7_th_2_SVGID_33_" style="overflow:visible;"></use>
          </clipPath>
          <polygon style="clip-path:url(#7_th_2_SVGID_34_);fill:#FFFFFF;" points="1178.686,273.761 1157.117,286.968 1160.685,286.968        1178.686,275.946      "></polygon>
        </g>
      </g>
      <g style="opacity:0.7;clip-path:url(#7_th_2_SVGID_32_);">
        <g>
          <defs>
            <rect id="7_th_2_SVGID_35_" x="1156.04" y="271.615" width="31.65" height="16.352"></rect>
          </defs>
          <clipPath id="7_th_2_SVGID_36_">
            <use xlink:href="#7_th_2_SVGID_35_" style="overflow:visible;"></use>
          </clipPath>
          <polygon style="clip-path:url(#7_th_2_SVGID_36_);fill:#FFFFFF;" points="1178.686,278.615 1165.045,286.967 1168.613,286.967        1178.686,280.8      "></polygon>
        </g>
      </g>
      <g style="opacity:0.7;clip-path:url(#7_th_2_SVGID_32_);">
        <g>
          <defs>
            <rect id="7_th_2_SVGID_37_" x="1163.97" y="276.469" width="23.72" height="11.498"></rect>
          </defs>
          <clipPath id="7_th_2_SVGID_38_">
            <use xlink:href="#7_th_2_SVGID_37_" style="overflow:visible;"></use>
          </clipPath>
          <polygon style="clip-path:url(#7_th_2_SVGID_38_);fill:#FFFFFF;" points="1178.686,283.469 1172.973,286.967 1176.54,286.967        1178.686,285.653      "></polygon>
        </g>
      </g>
    </g>
	<rect x="1152.436" y="184.063" style="clip-path:url(#7_th_2_SVGID_2_);fill:#FFD100;" width="26.453" height="26.193"></rect>

    <g style="clip-path:url(#7_th_2_SVGID_2_);">
      <text transform="matrix(1 0 0 1 255.5737 49.1662)">
        <tspan x="0" y="0" style="fill:#003B5C; font-family:'Montserrat-Bold'; font-size:30px;"></tspan>
        <tspan x="17.97" y="0" style="fill:#003B5C; font-family:'Montserrat-Bold'; font-size:30px;">Q</tspan>
        <tspan x="43.02" y="0" style="fill:#003B5C; font-family:'Montserrat-Bold'; font-size:30px;">12</tspan>
      </text>
    </g>
    <g style="clip-path:url(#7_th_2_SVGID_2_);">
      <text transform="matrix(1 0 0 1 809.1338 44.6061)">
        <tspan x="0" y="0" style="fill:#003B5C; font-family:'Montserrat-Bold'; font-size:30px;">Q</tspan>
        <tspan x="25.05" y="0" style="fill:#003B5C; font-family:'Montserrat-Bold'; font-size:30px;">12</tspan>
      </text>
    </g>
  </g>
</g>
</svg>
<svg id="Vector Smart Object" class="graph-line" viewBox="0 0 1592.57 497.673">
<g style="clip-path:url(#7_th_2_SVGID_2_);">
	<text style="z-index: 10;position:relative" transform="matrix(1 0 0 1 255.5737 116.8761)">
		<tspan x="0" y="0" style="fill:#003B5C; font-family:'Montserrat-Bold'; font-size:30px;">Q</tspan>
		<tspan x="25.05" y="0" style="fill:#003B5C; font-family:'Montserrat-Bold'; font-size:30px;">16</tspan>
	</text>
</g>
<g xmlns="http://www.w3.org/2000/svg" xmlns:xlink="http://www.w3.org/1999/xlink">
  <g>
    <defs>
      <path id="7_th_2_SVGID_39_" d="M180.77,91.927c-20.68,8.746-39.241,21.257-55.165,37.181c-15.927,15.926-28.436,34.486-37.183,55.165     c-9.068,21.44-13.665,44.181-13.665,67.593c0,23.412,4.597,46.155,13.665,67.592c8.747,20.68,21.256,39.241,37.183,55.166     c15.924,15.926,34.485,28.435,55.165,37.182c13.01,5.502,26.501,9.36,40.328,11.541l8.91-55.268     c-56.251-8.812-99.282-57.487-99.282-116.213c0-64.968,52.667-117.636,117.636-117.636V78.261     C224.951,78.261,202.208,82.859,180.77,91.927"></path>
    </defs>
    <clipPath id="7_th_2_SVGID_40_">
      <use xlink:href="#7_th_2_SVGID_39_" style="overflow:visible;"></use>
    </clipPath>
    <polygon style="clip-path:url(#7_th_2_SVGID_40_);fill:#FDD105;" points="-542.543,542.632 -543.898,541.832 234.261,24.249     235.617,25.049   "></polygon>
    <polygon style="clip-path:url(#7_th_2_SVGID_40_);fill:#FDD105;" points="-559.131,542.632 -560.486,541.832 217.675,24.249     219.03,25.049   "></polygon>
    <polygon style="clip-path:url(#7_th_2_SVGID_40_);fill:#FDD105;" points="-550.837,542.632 -552.192,541.832 225.969,24.249     227.324,25.049   "></polygon>
    <polygon style="clip-path:url(#7_th_2_SVGID_40_);fill:#FDD105;" points="-501.075,542.632 -502.43,541.832 275.73,24.249     277.085,25.049   "></polygon>
    <polygon style="clip-path:url(#7_th_2_SVGID_40_);fill:#FDD105;" points="-534.251,542.632 -535.606,541.832 242.556,24.249     243.911,25.049   "></polygon>
    <polygon style="clip-path:url(#7_th_2_SVGID_40_);fill:#FDD105;" points="-525.957,542.632 -527.312,541.832 250.849,24.249     252.204,25.049   "></polygon>
    <polygon style="clip-path:url(#7_th_2_SVGID_40_);fill:#FDD105;" points="-517.663,542.632 -519.018,541.832 259.143,24.249     260.498,25.049   "></polygon>
    <polygon style="clip-path:url(#7_th_2_SVGID_40_);fill:#FDD105;" points="-509.37,542.632 -510.725,541.832 267.436,24.249     268.791,25.049   "></polygon>
    <polygon style="clip-path:url(#7_th_2_SVGID_40_);fill:#FDD105;" points="-459.608,542.632 -460.963,541.832 317.197,24.249     318.552,25.049   "></polygon>
    <polygon style="clip-path:url(#7_th_2_SVGID_40_);fill:#FDD105;" points="-492.782,542.632 -494.137,541.832 284.024,24.249     285.379,25.049   "></polygon>
    <polygon style="clip-path:url(#7_th_2_SVGID_40_);fill:#FDD105;" points="-484.489,542.632 -485.844,541.832 292.317,24.249     293.672,25.049   "></polygon>
    <polygon style="clip-path:url(#7_th_2_SVGID_40_);fill:#FDD105;" points="-476.196,542.632 -477.551,541.832 300.61,24.249     301.965,25.049   "></polygon>
    <polygon style="clip-path:url(#7_th_2_SVGID_40_);fill:#FDD105;" points="-467.902,542.632 -469.257,541.832 308.905,24.249     310.26,25.049   "></polygon>
    <polygon style="clip-path:url(#7_th_2_SVGID_40_);fill:#FDD105;" points="-417.566,542.632 -418.921,541.832 359.239,24.249     360.594,25.049   "></polygon>
    <polygon style="clip-path:url(#7_th_2_SVGID_40_);fill:#FDD105;" points="-450.741,542.632 -452.096,541.832 326.065,24.249     327.42,25.049   "></polygon>
    <polygon style="clip-path:url(#7_th_2_SVGID_40_);fill:#FDD105;" points="-442.448,542.632 -443.803,541.832 334.358,24.249     335.713,25.049   "></polygon>
    <polygon style="clip-path:url(#7_th_2_SVGID_40_);fill:#FDD105;" points="-434.155,542.632 -435.51,541.832 342.651,24.249     344.006,25.049   "></polygon>
    <polygon style="clip-path:url(#7_th_2_SVGID_40_);fill:#FDD105;" points="-425.861,542.632 -427.216,541.832 350.946,24.249     352.301,25.049   "></polygon>
    <polygon style="clip-path:url(#7_th_2_SVGID_40_);fill:#FDD105;" points="-376.098,542.632 -377.453,541.832 400.706,24.249     402.062,25.049   "></polygon>
    <polygon style="clip-path:url(#7_th_2_SVGID_40_);fill:#FDD105;" points="-409.274,542.632 -410.629,541.832 367.532,24.249     368.887,25.049   "></polygon>
    <polygon style="clip-path:url(#7_th_2_SVGID_40_);fill:#FDD105;" points="-400.98,542.632 -402.335,541.832 375.826,24.249     377.181,25.049   "></polygon>
    <polygon style="clip-path:url(#7_th_2_SVGID_40_);fill:#FDD105;" points="-392.686,542.632 -394.041,541.832 384.12,24.249     385.475,25.049   "></polygon>
    <polygon style="clip-path:url(#7_th_2_SVGID_40_);fill:#FDD105;" points="-384.393,542.632 -385.748,541.832 392.413,24.249     393.768,25.049   "></polygon>
    <polygon style="clip-path:url(#7_th_2_SVGID_40_);fill:#FDD105;" points="-334.63,542.632 -335.986,541.832 442.174,24.249     443.529,25.049   "></polygon>
    <polygon style="clip-path:url(#7_th_2_SVGID_40_);fill:#FDD105;" points="-367.806,542.632 -369.161,541.832 409,24.249 410.355,25.049       "></polygon>
    <polygon style="clip-path:url(#7_th_2_SVGID_40_);fill:#FDD105;" points="-359.512,542.632 -360.867,541.832 417.294,24.249     418.649,25.049   "></polygon>
    <polygon style="clip-path:url(#7_th_2_SVGID_40_);fill:#FDD105;" points="-351.219,542.632 -352.574,541.832 425.587,24.249     426.942,25.049   "></polygon>
    <polygon style="clip-path:url(#7_th_2_SVGID_40_);fill:#FDD105;" points="-342.925,542.632 -344.28,541.832 433.881,24.249     435.236,25.049   "></polygon>
    <polygon style="clip-path:url(#7_th_2_SVGID_40_);fill:#FDD105;" points="-293.163,542.632 -294.518,541.832 483.642,24.249     484.997,25.049   "></polygon>
    <polygon style="clip-path:url(#7_th_2_SVGID_40_);fill:#FDD105;" points="-326.338,542.632 -327.693,541.832 450.468,24.249     451.823,25.049   "></polygon>
    <polygon style="clip-path:url(#7_th_2_SVGID_40_);fill:#FDD105;" points="-318.044,542.632 -319.4,541.832 458.762,24.249     460.117,25.049   "></polygon>
    <polygon style="clip-path:url(#7_th_2_SVGID_40_);fill:#FDD105;" points="-309.751,542.632 -311.106,541.832 467.055,24.249     468.41,25.049   "></polygon>
    <polygon style="clip-path:url(#7_th_2_SVGID_40_);fill:#FDD105;" points="-301.458,542.632 -302.813,541.832 475.349,24.249     476.703,25.049   "></polygon>
    <polygon style="clip-path:url(#7_th_2_SVGID_40_);fill:#FDD105;" points="-251.742,542.632 -253.097,541.832 525.063,24.249     526.418,25.049   "></polygon>
    <polygon style="clip-path:url(#7_th_2_SVGID_40_);fill:#FDD105;" points="-284.918,542.632 -286.273,541.832 491.889,24.249     493.244,25.049   "></polygon>
    <polygon style="clip-path:url(#7_th_2_SVGID_40_);fill:#FDD105;" points="-276.624,542.632 -277.979,541.832 500.182,24.249     501.537,25.049   "></polygon>
    <polygon style="clip-path:url(#7_th_2_SVGID_40_);fill:#FDD105;" points="-268.33,542.632 -269.685,541.832 508.476,24.249     509.831,25.049   "></polygon>
    <polygon style="clip-path:url(#7_th_2_SVGID_40_);fill:#FDD105;" points="-260.037,542.632 -261.392,541.832 516.769,24.249     518.124,25.049   "></polygon>
    <polygon style="clip-path:url(#7_th_2_SVGID_40_);fill:#FDD105;" points="-210.275,542.632 -211.63,541.832 566.53,24.249     567.885,25.049   "></polygon>
    <polygon style="clip-path:url(#7_th_2_SVGID_40_);fill:#FDD105;" points="-243.449,542.632 -244.804,541.832 533.357,24.249     534.712,25.049   "></polygon>
    <polygon style="clip-path:url(#7_th_2_SVGID_40_);fill:#FDD105;" points="-235.156,542.632 -236.511,541.832 541.65,24.249     543.005,25.049   "></polygon>
    <polygon style="clip-path:url(#7_th_2_SVGID_40_);fill:#FDD105;" points="-226.863,542.632 -228.218,541.832 549.943,24.249     551.298,25.049   "></polygon>
    <polygon style="clip-path:url(#7_th_2_SVGID_40_);fill:#FDD105;" points="-218.569,542.632 -219.924,541.832 558.238,24.249     559.593,25.049   "></polygon>
    <polygon style="clip-path:url(#7_th_2_SVGID_40_);fill:#FDD105;" points="-168.806,542.632 -170.161,541.832 607.998,24.249     609.354,25.049   "></polygon>
    <polygon style="clip-path:url(#7_th_2_SVGID_40_);fill:#FDD105;" points="-201.982,542.632 -203.337,541.832 574.824,24.249     576.179,25.049   "></polygon>
    <polygon style="clip-path:url(#7_th_2_SVGID_40_);fill:#FDD105;" points="-193.689,542.632 -195.044,541.832 583.117,24.249     584.472,25.049   "></polygon>
    <polygon style="clip-path:url(#7_th_2_SVGID_40_);fill:#FDD105;" points="-185.395,542.632 -186.75,541.832 591.412,24.249     592.767,25.049   "></polygon>
    <polygon style="clip-path:url(#7_th_2_SVGID_40_);fill:#FDD105;" points="-177.101,542.632 -178.456,541.832 599.705,24.249     601.06,25.049   "></polygon>
    <polygon style="clip-path:url(#7_th_2_SVGID_40_);fill:#FDD105;" points="-127.339,542.632 -128.694,541.832 649.465,24.249     650.821,25.049   "></polygon>
    <polygon style="clip-path:url(#7_th_2_SVGID_40_);fill:#FDD105;" points="-160.514,542.632 -161.869,541.832 616.292,24.249     617.647,25.049   "></polygon>
    <polygon style="clip-path:url(#7_th_2_SVGID_40_);fill:#FDD105;" points="-152.221,542.632 -153.576,541.832 624.586,24.249     625.941,25.049   "></polygon>
    <polygon style="clip-path:url(#7_th_2_SVGID_40_);fill:#FDD105;" points="-143.927,542.632 -145.282,541.832 632.879,24.249     634.234,25.049   "></polygon>
    <polygon style="clip-path:url(#7_th_2_SVGID_40_);fill:#FDD105;" points="-135.633,542.632 -136.989,541.832 641.172,24.249     642.527,25.049   "></polygon>
    <polygon style="clip-path:url(#7_th_2_SVGID_40_);fill:#FDD105;" points="-86.17,542.632 -87.525,541.832 690.635,24.249 691.99,25.049       "></polygon>
    <polygon style="clip-path:url(#7_th_2_SVGID_40_);fill:#FDD105;" points="-119.345,542.632 -120.701,541.832 657.461,24.249     658.816,25.049   "></polygon>
    <polygon style="clip-path:url(#7_th_2_SVGID_40_);fill:#FDD105;" points="-111.051,542.632 -112.407,541.832 665.755,24.249     667.109,25.049   "></polygon>
    <polygon style="clip-path:url(#7_th_2_SVGID_40_);fill:#FDD105;" points="-102.758,542.632 -104.113,541.832 674.048,24.249     675.403,25.049   "></polygon>
    <polygon style="clip-path:url(#7_th_2_SVGID_40_);fill:#FDD105;" points="-94.465,542.632 -95.82,541.832 682.341,24.249 683.696,25.049       "></polygon>
    <polygon style="clip-path:url(#7_th_2_SVGID_40_);fill:#FDD105;" points="-44.702,542.632 -46.057,541.832 732.103,24.249     733.458,25.049   "></polygon>
    <polygon style="clip-path:url(#7_th_2_SVGID_40_);fill:#FDD105;" points="-77.877,542.632 -79.232,541.832 698.929,24.249     700.284,25.049   "></polygon>
    <polygon style="clip-path:url(#7_th_2_SVGID_40_);fill:#FDD105;" points="-69.584,542.632 -70.939,541.832 707.222,24.249     708.577,25.049   "></polygon>
    <polygon style="clip-path:url(#7_th_2_SVGID_40_);fill:#FDD105;" points="-61.291,542.632 -62.646,541.832 715.516,24.249 716.87,25.049       "></polygon>
    <polygon style="clip-path:url(#7_th_2_SVGID_40_);fill:#FDD105;" points="-52.997,542.632 -54.352,541.832 723.81,24.249 725.165,25.049       "></polygon>
    <polygon style="clip-path:url(#7_th_2_SVGID_40_);fill:#FDD105;" points="-3.234,542.632 -4.589,541.832 773.57,24.249 774.926,25.049       "></polygon>
    <polygon style="clip-path:url(#7_th_2_SVGID_40_);fill:#FDD105;" points="-36.41,542.632 -37.765,541.832 740.396,24.249 741.751,25.049       "></polygon>
    <polygon style="clip-path:url(#7_th_2_SVGID_40_);fill:#FDD105;" points="-28.116,542.632 -29.471,541.832 748.69,24.249 750.045,25.049       "></polygon>
    <polygon style="clip-path:url(#7_th_2_SVGID_40_);fill:#FDD105;" points="-19.823,542.632 -21.178,541.832 756.984,24.249     758.339,25.049   "></polygon>
    <polygon style="clip-path:url(#7_th_2_SVGID_40_);fill:#FDD105;" points="-11.529,542.632 -12.884,541.832 765.277,24.249     766.632,25.049   "></polygon>
    <polygon style="clip-path:url(#7_th_2_SVGID_40_);fill:#FDD105;" points="38.234,542.632 36.879,541.832 815.038,24.249 816.394,25.049       "></polygon>
    <polygon style="clip-path:url(#7_th_2_SVGID_40_);fill:#FDD105;" points="5.058,542.632 3.703,541.832 781.864,24.249 783.219,25.049       "></polygon>
    <polygon style="clip-path:url(#7_th_2_SVGID_40_);fill:#FDD105;" points="13.351,542.632 11.996,541.832 790.158,24.249 791.513,25.049       "></polygon>
    <polygon style="clip-path:url(#7_th_2_SVGID_40_);fill:#FDD105;" points="21.645,542.632 20.29,541.832 798.451,24.249 799.806,25.049       "></polygon>
    <polygon style="clip-path:url(#7_th_2_SVGID_40_);fill:#FDD105;" points="29.939,542.632 28.584,541.832 806.745,24.249 808.1,25.049       "></polygon>
    <polygon style="clip-path:url(#7_th_2_SVGID_40_);fill:#FDD105;" points="46.479,542.632 45.124,541.832 823.285,24.249 824.64,25.049       "></polygon>
    <polygon style="clip-path:url(#7_th_2_SVGID_40_);fill:#FDD105;" points="54.772,542.632 53.417,541.832 831.579,24.249 832.933,25.049       "></polygon>
    <polygon style="clip-path:url(#7_th_2_SVGID_40_);fill:#FDD105;" points="63.066,542.632 61.711,541.832 839.872,24.249 841.227,25.049       "></polygon>
  </g>
</g>
</svg>
<svg class="graph-textCopy1" viewBox="0 0 1592.57 497.673">
<g xmlns="http://www.w3.org/2000/svg" xmlns:xlink="http://www.w3.org/1999/xlink">
  <text transform="matrix(1 0 0 1 231.4536 405.8966)" style="display:inline;">
    <tspan x="0" y="0" style="fill:#003B5C; font-family:'Montserrat-Bold'; font-size:30px;">4</tspan>
    <tspan x="20.67" y="0" style="fill:#003B5C; font-family:'Montserrat-Bold'; font-size:30px;">6</tspan>
    <tspan x="39.18" y="0" style="fill:#003B5C; font-family:'Montserrat-Bold'; font-size:30px;">%</tspan>
  </text>
</g>
</svg>
<svg class="graph-textCopy2" viewBox="0 0 1592.57 497.673">
  <g xmlns="http://www.w3.org/2000/svg" xmlns:xlink="http://www.w3.org/1999/xlink">
    <text transform="matrix(1 0 0 1 788.4634 470.6964)" style="display:inline;">
      <tspan x="0" y="0" style="fill:#003B5C; font-family:'Montserrat-Bold'; font-size:30px;">4</tspan>
      <tspan x="20.94" y="0" style="fill:#003B5C; font-family:'Montserrat-Bold'; font-size:30px;">8</tspan>
      <tspan x="40.469" y="0" style="fill:#003B5C; font-family:'Montserrat-Bold'; font-size:30px;">%</tspan>
    </text>
  </g>
  </svg>
  <svg class="graph-textCopy3" viewBox="0 0 1592.57 497.673">
    <g xmlns="http://www.w3.org/2000/svg" xmlns:xlink="http://www.w3.org/1999/xlink">
      <text transform="matrix(1 0 0 1 369.8735 411.3566)" style="display:inline;fill:#003B5C; font-family:'Montserrat-Bold'; font-size:30px;">60%</text>
    </g>
    </svg>